<svg width="640" height="576" viewBox="0 0 640 576" fill="none" xmlns="http://www.w3.org/2000/svg">
<g clip-path="url(#clip0_2_519)">
<path d="M327.539 582C288.73 582 259.083 577.166 247.257 575.026C204.375 567.267 121.482 552.268 61.5517 489.486C-22.2108 401.735 -16.543 267.333 40.2576 169.481C40.6432 169.333 40.9744 169.065 41.1748 168.703C41.3628 168.366 41.4064 167.996 41.327 167.652C45.7059 160.228 50.3765 153.024 55.3302 146.066C64.5684 133.09 102.219 77.7097 173.861 41.5656C175.693 41.9401 177.519 42.4173 179.286 42.985C179.413 43.0242 179.54 43.0427 179.667 43.0427C180.131 43.0427 180.57 42.7897 180.736 42.3762C180.948 41.8516 180.641 41.2756 180.055 41.0863C178.962 40.7366 177.852 40.4177 176.729 40.1359C204.241 26.6266 236.646 16.0035 274.261 11.6239C287.968 10.0276 302.064 9.22113 316.337 9.22113C367.183 9.22113 420.466 19.4452 468.086 40.6296C468.733 41.8351 468.959 43.2052 468.698 44.5568L465.911 59.0328C465.793 59.6479 466.054 60.0799 466.294 60.3329C466.648 60.7073 467.172 60.9295 467.696 60.9295C467.98 60.9295 468.264 60.8637 468.541 60.7361L483.133 53.9003C484.184 53.4086 485.366 53.1494 486.551 53.1494C487.738 53.1494 488.918 53.4086 489.968 53.9003L504.56 60.7361C504.837 60.8637 505.121 60.9295 505.405 60.9295C505.669 60.9295 505.932 60.874 506.174 60.7711C512.926 64.976 519.489 69.4461 525.837 74.1837C673.947 184.724 663.403 408.038 563.819 501.432C550.677 513.756 538.242 521.705 528.419 527.984C459.958 571.743 384.045 582 327.539 582ZM277.667 28.404C271.469 28.6262 265.964 32.5121 264.537 38.159L226.264 189.604C225.2 193.815 228.22 197.983 232.965 198.855L367.043 223.475C367.666 223.588 368.285 223.643 368.895 223.643C373.24 223.643 377.108 220.862 377.875 216.894L407.306 64.692C408.423 58.9094 404.258 53.3593 397.829 52.0694L292.492 30.9426C288.1 29.5601 284.53 28.3979 281.99 27.5544C281.517 27.3981 281.036 27.324 280.565 27.324C279.471 27.324 278.424 27.7231 277.667 28.404ZM64.3243 172.632C63.3921 172.632 62.595 173.264 62.5024 174.107C62.4049 174.994 63.1219 175.784 64.1098 175.889L64.1486 175.893C66.2172 176.074 68.3174 176.175 70.3906 176.197C70.3978 176.197 70.4049 176.197 70.4121 176.197C71.415 176.197 72.2343 175.48 72.2465 174.585C72.2583 173.741 71.551 173.04 70.6319 172.943C70.5675 172.935 70.5017 172.933 70.4354 172.931C68.4654 172.91 66.4707 172.813 64.5058 172.641C64.4449 172.637 64.3842 172.632 64.3243 172.632ZM86.3045 171.501C86.1752 171.501 86.0438 171.513 85.9122 171.538C83.9861 171.91 82.0182 172.213 80.063 172.437C79.0585 172.552 78.3486 173.371 78.4775 174.266C78.5964 175.091 79.3887 175.689 80.3006 175.689C80.3761 175.689 80.4527 175.685 80.5299 175.677C82.5888 175.443 84.661 175.124 86.6894 174.731C87.6789 174.539 88.3073 173.671 88.0927 172.789C87.9223 172.089 87.273 171.594 86.5176 171.513C86.4474 171.505 86.3763 171.501 86.3045 171.501ZM48.694 169.693C47.9244 169.693 47.2076 170.127 46.9531 170.814C46.6354 171.67 47.1573 172.593 48.119 172.877C50.0888 173.457 52.1126 173.968 54.1341 174.4C54.2784 174.43 54.4229 174.445 54.5652 174.445C55.3928 174.445 56.1424 173.937 56.3433 173.19C56.5786 172.312 55.9706 171.431 54.9857 171.221C53.0644 170.812 51.1411 170.326 49.2693 169.775C49.1499 169.74 49.0293 169.717 48.909 169.703C48.8372 169.697 48.7654 169.693 48.694 169.693ZM101.424 166.947C101.164 166.947 100.899 166.998 100.648 167.103C98.8622 167.848 97.0181 168.533 95.1668 169.139C94.2168 169.452 93.7295 170.39 94.0796 171.238C94.3528 171.898 95.0538 172.307 95.8006 172.307C96.011 172.307 96.2253 172.275 96.4343 172.207C98.3823 171.567 100.324 170.845 102.203 170.061C103.12 169.678 103.516 168.705 103.086 167.889C102.807 167.358 102.249 167.023 101.641 166.959C101.569 166.951 101.496 166.947 101.424 166.947ZM115.046 159.516C114.652 159.516 114.256 159.629 113.921 159.86C112.367 160.938 110.738 161.97 109.081 162.929C108.232 163.421 107.991 164.433 108.542 165.19C108.894 165.671 109.482 165.932 110.081 165.932C110.424 165.932 110.771 165.848 111.079 165.669C112.823 164.659 114.536 163.573 116.172 162.439C116.972 161.886 117.116 160.859 116.495 160.148C116.181 159.788 115.733 159.578 115.264 159.528C115.191 159.52 115.119 159.516 115.046 159.516ZM126.488 149.582C125.957 149.582 125.43 149.788 125.068 150.181C123.819 151.543 122.486 152.869 121.112 154.128C120.405 154.774 120.421 155.809 121.147 156.439C121.503 156.747 121.964 156.901 122.426 156.901C122.904 156.901 123.38 156.735 123.74 156.408C125.188 155.081 126.59 153.682 127.906 152.252C128.548 151.553 128.432 150.524 127.65 149.952C127.368 149.749 127.04 149.629 126.705 149.595C126.634 149.586 126.56 149.582 126.488 149.582ZM135.157 137.626C134.483 137.626 133.834 137.959 133.513 138.535C132.638 140.109 131.675 141.666 130.649 143.168C130.123 143.937 130.395 144.943 131.261 145.412C131.559 145.573 131.887 145.649 132.213 145.649C132.831 145.649 133.437 145.371 133.781 144.865C134.861 143.285 135.875 141.644 136.799 139.988C137.249 139.179 136.877 138.2 135.972 137.797C135.778 137.712 135.575 137.661 135.374 137.638C135.3 137.63 135.228 137.626 135.157 137.626ZM140.602 124.253C139.775 124.253 139.022 124.757 138.822 125.505C138.357 127.217 137.808 128.928 137.187 130.591C136.868 131.446 137.388 132.372 138.348 132.656C138.542 132.714 138.736 132.74 138.928 132.74C139.697 132.74 140.413 132.306 140.667 131.621C141.32 129.873 141.9 128.071 142.387 126.269C142.623 125.392 142.018 124.51 141.031 124.3C140.96 124.283 140.888 124.273 140.819 124.265C140.745 124.257 140.674 124.253 140.602 124.253ZM161.11 123.58C160.51 123.58 160.009 124 159.981 124.538C159.948 125.096 160.431 125.561 161.057 125.598C161.849 125.631 162.646 125.649 163.442 125.649C164.662 125.649 165.879 125.608 167.084 125.528C167.707 125.487 168.176 125.001 168.13 124.446C168.088 123.958 167.661 123.576 167.135 123.52C167.091 123.516 167.045 123.512 167.001 123.512C166.971 123.512 166.943 123.514 166.915 123.516C165.77 123.592 164.611 123.631 163.452 123.631C162.689 123.631 161.925 123.615 161.165 123.58C161.147 123.58 161.128 123.58 161.11 123.58ZM149.525 121.788C149.037 121.788 148.589 122.07 148.442 122.506C148.259 123.039 148.596 123.6 149.197 123.763C150.853 124.211 152.566 124.586 154.284 124.876C154.543 124.921 154.804 124.962 155.064 125.003C155.136 125.016 155.205 125.022 155.275 125.022C155.806 125.022 156.279 124.666 156.374 124.178C156.478 123.629 156.064 123.109 155.448 123.014C155.203 122.977 154.958 122.936 154.711 122.893C153.067 122.615 151.432 122.259 149.853 121.831C149.788 121.815 149.723 121.802 149.656 121.796C149.612 121.79 149.569 121.788 149.525 121.788ZM178.519 121.445C178.401 121.445 178.279 121.461 178.161 121.498C176.348 122.037 174.483 122.481 172.61 122.817C171.998 122.926 171.601 123.458 171.723 124.004C171.832 124.485 172.305 124.814 172.834 124.814C172.908 124.814 172.984 124.808 173.058 124.796C175.021 124.444 176.979 123.977 178.879 123.411C179.473 123.234 179.794 122.662 179.595 122.134C179.452 121.751 179.076 121.496 178.653 121.453C178.609 121.447 178.565 121.445 178.519 121.445ZM189.125 116.929C188.915 116.929 188.705 116.981 188.516 117.087C186.904 118.005 185.213 118.842 183.488 119.577C182.925 119.817 182.687 120.42 182.957 120.922C183.151 121.284 183.555 121.496 183.978 121.496C184.142 121.496 184.308 121.465 184.468 121.397C186.273 120.628 188.045 119.749 189.735 118.789C190.261 118.488 190.416 117.865 190.079 117.396C189.89 117.131 189.583 116.97 189.259 116.937C189.213 116.933 189.169 116.929 189.125 116.929ZM142.604 110.134C141.604 110.134 140.784 110.85 140.771 111.745C140.743 113.498 140.63 115.275 140.433 117.028C140.334 117.917 141.052 118.709 142.041 118.813L142.075 118.815C142.138 118.822 142.2 118.824 142.26 118.824C143.191 118.824 143.987 118.196 144.082 117.353C144.29 115.508 144.41 113.636 144.438 111.79C144.451 110.947 143.745 110.243 142.823 110.147C142.761 110.138 142.696 110.134 142.632 110.134C142.623 110.134 142.613 110.134 142.604 110.134ZM198.184 110.252C197.884 110.252 197.584 110.359 197.362 110.568C196.048 111.809 194.635 112.988 193.164 114.07C192.681 114.426 192.615 115.061 193.012 115.491C193.236 115.732 193.561 115.855 193.887 115.855C194.141 115.855 194.395 115.781 194.607 115.625C196.15 114.489 197.63 113.255 199.009 111.955C199.438 111.55 199.417 110.91 198.962 110.527C198.778 110.373 198.554 110.285 198.321 110.26C198.274 110.256 198.23 110.252 198.184 110.252ZM205.144 101.805C204.747 101.805 204.361 101.992 204.154 102.321C203.223 103.809 202.177 105.259 201.045 106.633C200.674 107.082 200.784 107.713 201.288 108.042C201.491 108.176 201.724 108.24 201.958 108.24C202.306 108.24 202.648 108.098 202.87 107.826C204.059 106.386 205.153 104.864 206.13 103.307C206.435 102.819 206.241 102.204 205.694 101.933C205.562 101.867 205.419 101.828 205.276 101.813C205.232 101.807 205.188 101.805 205.144 101.805ZM209.555 92.0952C209.054 92.0952 208.596 92.3915 208.463 92.8441C207.968 94.4898 207.354 96.1252 206.638 97.701C206.405 98.2173 206.684 98.8057 207.264 99.0155C207.403 99.0648 207.546 99.0875 207.687 99.0875C208.135 99.0875 208.56 98.8509 208.737 98.458C209.488 96.8061 210.132 95.0925 210.649 93.3645C210.811 92.8256 210.453 92.2722 209.848 92.1282C209.795 92.1158 209.742 92.1076 209.689 92.1014C209.643 92.0973 209.599 92.0952 209.555 92.0952ZM211.19 81.7211C210.573 81.7211 210.067 82.1613 210.058 82.7126C210.03 84.1197 209.922 85.5412 209.737 86.9359C209.698 87.2301 209.654 87.5263 209.608 87.8226C209.52 88.3739 209.952 88.8841 210.571 88.9602C210.61 88.9643 210.647 88.9663 210.686 88.9663C211.236 88.9663 211.769 88.6166 211.85 88.1023C211.899 87.7917 211.945 87.4832 211.986 87.1746C212.18 85.7119 212.294 84.2205 212.321 82.7455C212.333 82.2251 211.894 81.7889 211.326 81.7272C211.287 81.7231 211.247 81.7211 211.208 81.7211C211.204 81.7211 211.197 81.7211 211.19 81.7211ZM210.534 73.9821C210.474 73.9821 210.412 73.9862 210.349 73.9945C209.733 74.0891 209.315 74.6096 209.421 75.1588C209.573 75.9631 209.7 76.7839 209.797 77.5965C209.86 78.1129 210.349 78.4975 210.92 78.4975C210.961 78.4975 211.003 78.4955 211.044 78.4914C211.668 78.4317 212.116 77.9339 212.049 77.3805C211.947 76.5289 211.813 75.6669 211.654 74.8235C211.568 74.3709 211.157 74.0397 210.67 73.9883C210.626 73.9842 210.58 73.9821 210.534 73.9821ZM194.644 48.8376C194.326 48.8376 194.012 48.9549 193.788 49.1853C193.379 49.607 193.43 50.2448 193.903 50.6088C194.6 51.1478 195.286 51.7073 195.937 52.2731C196.157 52.4644 196.443 52.559 196.727 52.559C197.02 52.559 197.316 52.4562 197.538 52.2546C197.974 51.8555 197.965 51.2157 197.517 50.8269C196.836 50.2344 196.118 49.6482 195.386 49.0825C195.208 48.9467 194.995 48.8664 194.778 48.8438C194.734 48.8397 194.688 48.8376 194.644 48.8376ZM184.992 43.0694C184.578 43.0694 184.181 43.2731 183.98 43.6228C183.699 44.1206 183.923 44.7275 184.481 44.9785C186.16 45.7355 187.802 46.5912 189.363 47.5231C189.557 47.6383 189.776 47.6939 189.994 47.6939C190.358 47.6939 190.716 47.5375 190.936 47.2474C191.284 46.7846 191.146 46.1572 190.624 45.8486C188.987 44.8694 187.264 43.9705 185.502 43.1785C185.382 43.1249 185.253 43.09 185.126 43.0776C185.082 43.0715 185.038 43.0694 184.992 43.0694Z" fill="url(#paint0_linear_2_519)"/>
<path d="M70.4121 176.198C70.4049 176.198 70.3977 176.198 70.3906 176.198C68.3174 176.175 66.2172 176.074 64.1486 175.893L64.1098 175.889C63.1219 175.784 62.4049 174.994 62.5023 174.108C62.5949 173.264 63.3921 172.633 64.3243 172.633C64.3841 172.633 64.4448 172.637 64.5058 172.641C66.4707 172.814 68.4654 172.91 70.4354 172.931C70.5017 172.933 70.5675 172.935 70.6319 172.943C71.551 173.04 72.2583 173.742 72.2465 174.585C72.2342 175.48 71.4149 176.198 70.4121 176.198ZM80.3005 175.69C79.3886 175.69 78.5963 175.091 78.4774 174.266C78.3486 173.371 79.0584 172.552 80.0629 172.437C82.0181 172.213 83.986 171.911 85.9121 171.538C86.0438 171.514 86.1752 171.501 86.3045 171.501C86.3763 171.501 86.4474 171.505 86.5176 171.514C87.2729 171.594 87.9223 172.09 88.0927 172.789C88.3072 173.672 87.6789 174.54 86.6894 174.731C84.661 175.124 82.5887 175.443 80.5298 175.677C80.4527 175.686 80.376 175.69 80.3005 175.69ZM54.5651 174.445C54.4229 174.445 54.2783 174.431 54.134 174.4C52.1125 173.968 50.0888 173.458 48.119 172.878C47.1572 172.594 46.6353 171.67 46.9531 170.814C47.2076 170.127 47.9243 169.693 48.694 169.693C48.7653 169.693 48.8372 169.697 48.909 169.703C49.0293 169.718 49.1498 169.74 49.2692 169.775C51.1411 170.327 53.0644 170.812 54.9856 171.222C55.9705 171.431 56.5785 172.312 56.3432 173.19C56.1423 173.937 55.3928 174.445 54.5651 174.445ZM95.8006 172.308C95.0538 172.308 94.3527 171.898 94.0796 171.238C93.7295 170.39 94.2167 169.452 95.1667 169.14C97.018 168.533 98.8621 167.848 100.648 167.103C100.899 166.998 101.163 166.947 101.424 166.947C101.496 166.947 101.569 166.951 101.641 166.959C102.249 167.023 102.807 167.358 103.086 167.889C103.516 168.706 103.12 169.679 102.203 170.061C100.324 170.845 98.3823 171.567 96.4342 172.207C96.2253 172.275 96.011 172.308 95.8006 172.308Z" fill="url(#paint1_linear_2_519)"/>
<path d="M39.5294 169.615C39.2567 169.615 38.9798 169.561 38.7187 169.446C36.854 168.625 35.0087 167.724 33.2345 166.766C32.3684 166.299 32.092 165.293 32.6171 164.521C32.9618 164.015 33.5671 163.736 34.1871 163.736C34.2589 163.736 34.331 163.738 34.403 163.746C34.6549 163.773 34.9043 163.847 35.1357 163.972C36.8203 164.881 38.5723 165.737 40.343 166.517C40.8702 166.749 41.2168 167.177 41.3269 167.652C40.9704 168.257 40.6101 168.874 40.2575 169.481C40.0289 169.57 39.7809 169.615 39.5294 169.615Z" fill="#DEE8FD"/>
<path d="M40.2577 169.481C40.6103 168.874 40.9705 168.257 41.3271 167.652C41.4065 167.996 41.3629 168.366 41.1749 168.703C40.9745 169.065 40.6433 169.333 40.2577 169.481ZM110.081 165.932C109.482 165.932 108.894 165.671 108.542 165.19C107.991 164.433 108.232 163.421 109.081 162.929C110.738 161.97 112.367 160.938 113.922 159.86C114.256 159.629 114.652 159.516 115.046 159.516C115.119 159.516 115.191 159.52 115.264 159.528C115.733 159.578 116.182 159.788 116.495 160.148C117.116 160.859 116.972 161.886 116.173 162.439C114.536 163.573 112.823 164.659 111.079 165.669C110.771 165.848 110.424 165.932 110.081 165.932ZM122.426 156.902C121.964 156.902 121.503 156.747 121.147 156.439C120.421 155.809 120.406 154.774 121.112 154.128C122.486 152.87 123.819 151.543 125.068 150.181C125.431 149.788 125.957 149.582 126.488 149.582C126.56 149.582 126.634 149.586 126.705 149.595C127.04 149.63 127.368 149.749 127.65 149.952C128.433 150.524 128.548 151.553 127.906 152.252C126.59 153.682 125.188 155.081 123.74 156.408C123.38 156.735 122.904 156.902 122.426 156.902ZM132.213 145.649C131.887 145.649 131.559 145.573 131.261 145.412C130.395 144.943 130.123 143.937 130.649 143.168C131.675 141.666 132.638 140.109 133.513 138.535C133.834 137.959 134.483 137.626 135.157 137.626C135.229 137.626 135.3 137.63 135.374 137.638C135.575 137.661 135.778 137.712 135.972 137.797C136.877 138.2 137.249 139.179 136.799 139.988C135.875 141.644 134.861 143.285 133.781 144.865C133.437 145.371 132.832 145.649 132.213 145.649ZM138.928 132.74C138.736 132.74 138.542 132.714 138.348 132.656C137.388 132.372 136.868 131.446 137.187 130.591C137.808 128.928 138.358 127.217 138.822 125.505C139.023 124.757 139.775 124.253 140.602 124.253C140.674 124.253 140.745 124.257 140.819 124.265C140.888 124.273 140.96 124.283 141.032 124.3C142.018 124.51 142.623 125.392 142.387 126.269C141.9 128.071 141.32 129.873 140.667 131.621C140.413 132.306 139.697 132.74 138.928 132.74ZM142.26 118.824C142.2 118.824 142.138 118.822 142.075 118.816L142.041 118.813C141.052 118.709 140.334 117.917 140.434 117.028C140.63 115.275 140.743 113.498 140.771 111.745C140.784 110.85 141.604 110.134 142.604 110.134C142.613 110.134 142.623 110.134 142.632 110.134C142.697 110.134 142.761 110.139 142.824 110.147C143.745 110.243 144.452 110.947 144.438 111.79C144.41 113.636 144.29 115.508 144.082 117.353C143.987 118.196 143.191 118.824 142.26 118.824Z" fill="url(#paint2_linear_2_519)"/>
<path d="M26.0528 161.886C25.6445 161.886 25.234 161.765 24.8936 161.516C24.1188 160.952 23.3492 160.368 22.6054 159.78C21.848 159.181 21.7792 158.148 22.4514 157.474C22.8137 157.109 23.3173 156.924 23.8233 156.924C23.896 156.924 23.9687 156.928 24.0413 156.937C24.3996 156.974 24.7495 157.107 25.0402 157.338C25.7468 157.895 26.4788 158.451 27.2148 158.988C27.9988 159.559 28.1149 160.588 27.4739 161.287C27.1113 161.682 26.5841 161.886 26.0528 161.886Z" fill="#DEE8FD"/>
<path d="M0.0100505 117.816C-0.938109 117.816 -1.73641 117.168 -1.81492 116.316C-1.89643 115.426 -1.95808 114.527 -1.99849 113.64C-2.03914 112.739 -1.25194 111.978 -0.240275 111.941C-0.216028 111.941 -0.192015 111.941 -0.168 111.941C-0.0934122 111.941 -0.0195163 111.945 0.0527618 111.953C0.931414 112.046 1.62903 112.696 1.66621 113.508C1.70408 114.35 1.76273 115.205 1.84032 116.049C1.92299 116.948 1.17157 117.736 0.162449 117.81C0.111185 117.814 0.0603912 117.816 0.0100505 117.816Z" fill="#DEE8FD"/>
<path d="M0.110732 106.53C0.0513859 106.53 -0.00865424 106.528 -0.0691555 106.522C-1.09144 106.452 -1.81468 105.636 -1.717 104.739C-1.66504 104.259 -1.60684 103.78 -1.54265 103.299C-1.3653 101.972 -1.13924 100.63 -0.870679 99.3119C-0.71042 98.524 0.0615468 97.9706 0.930962 97.9706C1.00278 97.9706 1.07505 97.9747 1.14803 97.9809C1.18566 97.985 1.22285 97.9912 1.26049 97.9973C2.25668 98.1578 2.91827 99.0074 2.73723 99.8961C2.48229 101.149 2.26754 102.422 2.09873 103.685C2.038 104.142 1.98303 104.599 1.93315 105.053C1.84102 105.899 1.04319 106.53 0.110732 106.53ZM3.31153 92.8216C3.12379 92.8216 2.93327 92.7969 2.74554 92.7413C1.78237 92.4636 1.25564 91.542 1.569 90.6821C2.20149 88.95 2.92381 87.2241 3.71656 85.5496C4.01168 84.9242 4.69196 84.5498 5.40736 84.5498C5.47894 84.5498 5.55053 84.5519 5.62234 84.5601C5.78907 84.5786 5.95579 84.6177 6.11836 84.6773C7.05151 85.0271 7.48934 85.9857 7.09585 86.8168C6.34328 88.409 5.65698 90.0485 5.05635 91.6942C4.80419 92.3854 4.08349 92.8216 3.31153 92.8216ZM9.79854 80.0632C9.47987 80.0632 9.15751 79.9891 8.86424 79.8348C7.99344 79.374 7.70756 78.3702 8.22528 77.5946C9.26904 76.0312 10.4019 74.4883 11.5923 73.0051C11.9505 72.5607 12.5135 72.3242 13.085 72.3242C13.1573 72.3242 13.2298 72.3262 13.3021 72.3345C13.5986 72.3653 13.8904 72.462 14.1507 72.6287C14.9742 73.1532 15.164 74.1736 14.5747 74.9059C13.4441 76.315 12.3685 77.7797 11.3773 79.265C11.0344 79.7793 10.4241 80.0632 9.79854 80.0632ZM19.2827 68.8929C18.8303 68.8929 18.3772 68.7448 18.0223 68.4444C17.2871 67.8252 17.2552 66.7905 17.9514 66.1363C19.3543 64.8156 20.8386 63.532 22.3638 62.3162C22.7134 62.0385 23.1499 61.9007 23.585 61.9007C23.6579 61.9007 23.7307 61.9048 23.8032 61.913C24.2313 61.9582 24.643 62.1372 24.9529 62.4478C25.6279 63.1185 25.5626 64.1511 24.8074 64.7539C23.3577 65.908 21.947 67.1278 20.6146 68.3827C20.2541 68.7201 19.7688 68.8929 19.2827 68.8929ZM31.2774 59.8394C30.6885 59.8394 30.1103 59.5863 29.7556 59.1194C29.1894 58.3706 29.4113 57.3544 30.2509 56.8504C31.9431 55.8341 33.7057 54.8693 35.4896 53.9806C35.7725 53.8387 36.0798 53.7729 36.3828 53.7729C36.4555 53.7729 36.5278 53.7749 36.5996 53.7832C37.1626 53.8428 37.6868 54.1329 37.9847 54.6081C38.4791 55.396 38.1632 56.3916 37.279 56.8318C35.584 57.6753 33.9092 58.5948 32.301 59.5596C31.9868 59.7489 31.63 59.8394 31.2774 59.8394ZM111.127 59.8312C110.774 59.8312 110.417 59.7386 110.103 59.5493C108.495 58.5825 106.82 57.665 105.125 56.8236C104.241 56.3834 103.925 55.3877 104.418 54.5998C104.754 54.065 105.378 53.7626 106.021 53.7626C106.093 53.7626 106.165 53.7667 106.237 53.7749C106.468 53.7996 106.697 53.8634 106.913 53.9704C108.698 54.859 110.462 55.8238 112.155 56.8421C112.994 57.3482 113.215 58.3623 112.648 59.1091C112.294 59.5781 111.716 59.8312 111.127 59.8312ZM45.1889 53.3306C44.4565 53.3306 43.7646 52.9377 43.4811 52.2938C43.112 51.4524 43.5767 50.5061 44.5193 50.177C46.4241 49.5105 48.3805 48.9098 50.3348 48.3914C50.5091 48.3461 50.6855 48.3235 50.859 48.3235C50.9312 48.3235 51.003 48.3276 51.0739 48.3358C51.778 48.4099 52.3999 48.848 52.6153 49.4919C52.9044 50.3559 52.3519 51.2652 51.3811 51.5244C49.5256 52.0161 47.6674 52.5859 45.8577 53.2175C45.6378 53.2956 45.4115 53.3306 45.1889 53.3306ZM97.2044 53.3306C96.9828 53.3306 96.7576 53.2956 96.5389 53.2175C94.7329 52.59 92.8717 52.0243 91.0077 51.5326C90.0367 51.2755 89.4827 50.3662 89.77 49.5022C90.006 48.7925 90.7361 48.3317 91.5275 48.3317C91.5988 48.3317 91.6707 48.3358 91.7427 48.3441C91.8445 48.3544 91.9468 48.3729 92.0487 48.3996C94.0106 48.9159 95.9695 49.5146 97.8711 50.1749C98.8142 50.502 99.2811 51.4483 98.9135 52.2896C98.6311 52.9356 97.9374 53.3306 97.2044 53.3306ZM82.0226 49.7059C81.9293 49.7059 81.8353 49.6997 81.7406 49.6874C79.8004 49.422 77.8531 49.2286 75.9297 49.1093C74.9188 49.0435 74.1574 48.2659 74.2274 47.3669C74.2948 46.505 75.1001 45.8446 76.0544 45.8446C76.0974 45.8446 76.1406 45.8467 76.184 45.8487C77.3737 45.9228 78.583 46.0257 79.7785 46.1512C80.6163 46.2396 81.4557 46.3424 82.2962 46.4576C83.2973 46.5934 83.9842 47.4286 83.8309 48.3194C83.6921 49.1258 82.9079 49.7059 82.0226 49.7059ZM60.3539 49.6915C59.463 49.6915 58.6809 49.1134 58.5419 48.305C58.3886 47.4122 59.0756 46.579 60.0766 46.4433C62.099 46.1655 64.1567 45.9639 66.1921 45.8405C66.2329 45.8384 66.2738 45.8385 66.3145 45.8385C66.3888 45.8385 66.4625 45.8405 66.5348 45.8487C67.3931 45.9413 68.0847 46.5646 68.1454 47.3607C68.2138 48.2618 67.4499 49.0394 66.4394 49.1011C64.5066 49.2163 62.5532 49.4097 60.6324 49.6709C60.5389 49.6853 60.4458 49.6915 60.3539 49.6915Z" fill="#DEE8FD"/>
<path d="M120.988 66.9797C120.527 66.9797 120.065 66.8255 119.709 66.5169C119.026 65.9244 118.324 65.3402 117.623 64.7786C116.869 64.1779 116.806 63.1452 117.482 62.4725C117.844 62.1125 118.345 61.9294 118.847 61.9294C118.92 61.9294 118.993 61.9336 119.065 61.9418C119.427 61.9788 119.779 62.1146 120.071 62.347C120.81 62.9374 121.549 63.5525 122.267 64.1758C122.992 64.8053 123.008 65.8401 122.302 66.486C121.941 66.8152 121.466 66.9797 120.988 66.9797Z" fill="#DEE8FD"/>
<path d="M114.094 80.4954C113.898 80.2197 113.528 80.086 113.172 80.1621L103.025 82.3159C99.5444 79.2796 95.495 76.7164 90.98 74.7765L89.8083 65.5481C89.7674 65.2251 89.5003 64.9598 89.1433 64.8898L76.9317 62.4624C76.5747 62.3924 76.2069 62.5323 76.0152 62.808L70.5535 70.7177C65.5407 70.765 60.6528 71.5529 56.0538 72.9826L47.8958 67.1938C47.6099 66.9902 47.2109 66.9717 46.9021 67.1465L36.3415 73.1225C36.0327 73.2974 35.8824 73.6265 35.9674 73.9433L38.3851 82.9824C34.9776 86.0846 32.1006 89.6908 29.9221 93.7125L19.5639 94.7575C19.2007 94.7945 18.9035 95.0311 18.8239 95.35L16.1004 106.228C16.0209 106.547 16.1766 106.874 16.4879 107.045L25.3665 111.91C25.4201 116.376 26.3038 120.731 27.9096 124.827L21.4095 132.095C21.1818 132.35 21.1605 132.706 21.3564 132.979L28.0655 142.389C28.2618 142.662 28.632 142.796 28.9876 142.722L39.1344 140.568C42.6151 143.602 46.6645 146.166 51.1797 148.107L52.3512 157.334C52.3923 157.659 52.6592 157.922 53.0162 157.994L65.228 160.42C65.5848 160.492 65.9529 160.352 66.1443 160.074L71.6062 152.164C76.6188 152.117 81.507 151.331 86.106 149.899L94.2639 155.69C94.5498 155.894 94.9491 155.912 95.2576 155.737L105.818 149.761C106.127 149.587 106.277 149.255 106.192 148.939L103.775 139.899C107.182 136.799 110.059 133.191 112.238 129.169L122.595 128.126C122.96 128.089 123.255 127.851 123.336 127.534L126.059 116.656C126.139 116.337 125.982 116.01 125.671 115.839L116.793 110.972C116.739 106.508 115.856 102.153 114.25 98.0551L120.75 90.7872C120.978 90.5342 120.999 90.1783 120.803 89.9026L114.094 80.4954Z" fill="#91B3FA"/>
<path d="M69.9195 119.97C70.3897 120.021 70.8663 120.04 71.3482 120.027C76.6631 119.896 80.8665 115.936 80.7187 111.202C80.5705 106.467 76.1276 102.721 70.8111 102.854C65.4964 102.986 61.293 106.946 61.4408 111.679C61.5126 113.975 62.5825 116.106 64.4538 117.682C65.9749 118.964 67.8779 119.754 69.9195 119.97ZM72.5746 100.316C78.6621 100.962 83.4754 105.51 83.6512 111.128C83.8442 117.306 78.3619 122.469 71.4297 122.64C68.0714 122.724 64.878 121.638 62.4381 119.581C59.9973 117.526 58.6014 114.745 58.5081 111.754C58.3153 105.578 63.7976 100.415 70.7296 100.242C71.3544 100.227 71.971 100.252 72.5746 100.316Z" fill="#BDD0FB"/>
<path d="M74.4662 84.2207C75.5119 84.3318 76.5572 84.4902 77.5989 84.6979C77.9268 84.7617 78.2536 84.8316 78.5789 84.9057C80.1836 85.2739 81.7529 85.7533 83.2625 86.3395L83.3241 86.3642C83.3825 86.3868 83.4407 86.4095 83.4989 86.4342C83.6123 86.4774 83.7252 86.5247 83.8377 86.5699C84.1337 86.6913 84.2958 86.9669 84.2596 87.2406C84.2506 87.3064 84.23 87.3743 84.1968 87.4381C84.0275 87.7652 83.5915 87.9071 83.2239 87.7569C81.3308 86.9793 79.331 86.3807 77.2798 85.9734C67.0923 83.9471 56.9385 86.9114 50.0434 93.0355C46.2078 96.4401 43.3809 100.826 42.1175 105.872C41.8958 106.759 41.7259 107.647 41.6074 108.534C40.8094 114.514 42.3309 120.505 46.0044 125.656C50.2235 131.572 56.7764 135.672 64.4556 137.196C80.3159 140.346 96.0829 131.418 99.6181 117.298C99.8361 116.425 100.004 115.549 100.121 114.668C100.63 110.855 100.196 106.983 98.8362 103.336C98.8011 103.241 98.7914 103.144 98.8039 103.052C98.8364 102.809 99.0223 102.591 99.301 102.511C99.6862 102.398 100.101 102.581 100.228 102.924C101.656 106.755 102.112 110.817 101.578 114.823C101.455 115.746 101.279 116.666 101.05 117.581C97.3384 132.407 80.7741 141.778 64.1365 138.472C56.0744 136.871 49.1955 132.568 44.7664 126.357C40.9098 120.949 39.3125 114.66 40.1501 108.384C40.2748 107.45 40.4531 106.518 40.6854 105.588C42.4835 98.4067 47.3135 92.2785 54.2854 88.3329C60.3563 84.8954 67.4192 83.4739 74.4662 84.2207Z" fill="#BDD0FB"/>
<path d="M210.92 78.4978C210.349 78.4978 209.86 78.1131 209.797 77.5968C209.7 76.7842 209.573 75.9634 209.421 75.1591C209.315 74.6098 209.733 74.0894 210.349 73.9947C210.412 73.9865 210.474 73.9824 210.534 73.9824C210.58 73.9824 210.626 73.9844 210.67 73.9886C211.157 74.04 211.568 74.3712 211.654 74.8238C211.813 75.6672 211.947 76.5291 212.049 77.3808C212.116 77.9342 211.668 78.432 211.044 78.4917C211.003 78.4958 210.961 78.4978 210.92 78.4978Z" fill="url(#paint3_linear_2_519)"/>
<path d="M163.442 125.649C162.646 125.649 161.849 125.631 161.057 125.598C160.431 125.561 159.948 125.096 159.981 124.539C160.008 124 160.51 123.58 161.11 123.58C161.128 123.58 161.147 123.58 161.165 123.58C161.925 123.615 162.689 123.631 163.451 123.631C164.611 123.631 165.77 123.592 166.915 123.516C166.943 123.514 166.971 123.512 167.001 123.512C167.045 123.512 167.091 123.516 167.135 123.52C167.661 123.576 168.088 123.958 168.13 124.446C168.176 125.001 167.707 125.487 167.084 125.528C165.878 125.608 164.661 125.649 163.442 125.649ZM155.275 125.022C155.205 125.022 155.136 125.016 155.064 125.003C154.803 124.962 154.543 124.921 154.284 124.876C152.566 124.586 150.852 124.211 149.197 123.763C148.596 123.6 148.259 123.039 148.442 122.506C148.589 122.07 149.037 121.788 149.525 121.788C149.569 121.788 149.612 121.79 149.656 121.796C149.723 121.803 149.788 121.815 149.853 121.831C151.432 122.259 153.067 122.615 154.711 122.893C154.958 122.936 155.203 122.977 155.448 123.014C156.064 123.109 156.478 123.629 156.374 124.179C156.279 124.666 155.806 125.022 155.275 125.022ZM172.834 124.814C172.305 124.814 171.832 124.485 171.723 124.004C171.601 123.459 171.998 122.926 172.61 122.817C174.483 122.481 176.348 122.037 178.161 121.498C178.279 121.461 178.401 121.445 178.519 121.445C178.565 121.445 178.609 121.447 178.653 121.453C179.076 121.496 179.452 121.751 179.595 122.134C179.794 122.662 179.473 123.234 178.879 123.411C176.979 123.977 175.021 124.444 173.058 124.796C172.984 124.808 172.908 124.814 172.834 124.814ZM183.978 121.496C183.555 121.496 183.151 121.284 182.957 120.922C182.687 120.42 182.925 119.817 183.488 119.577C185.213 118.842 186.904 118.005 188.516 117.088C188.705 116.981 188.915 116.929 189.125 116.929C189.169 116.929 189.213 116.933 189.259 116.937C189.582 116.97 189.89 117.131 190.079 117.396C190.416 117.865 190.261 118.488 189.735 118.789C188.044 119.75 186.273 120.628 184.468 121.397C184.308 121.465 184.142 121.496 183.978 121.496ZM193.887 115.855C193.561 115.855 193.236 115.732 193.012 115.491C192.614 115.061 192.681 114.426 193.164 114.07C194.635 112.988 196.048 111.809 197.362 110.568C197.584 110.359 197.884 110.252 198.184 110.252C198.23 110.252 198.274 110.256 198.32 110.26C198.554 110.285 198.778 110.373 198.962 110.527C199.417 110.91 199.438 111.55 199.009 111.955C197.63 113.255 196.15 114.489 194.607 115.625C194.395 115.781 194.141 115.855 193.887 115.855ZM201.957 108.24C201.724 108.24 201.491 108.176 201.288 108.042C200.784 107.713 200.674 107.082 201.045 106.633C202.177 105.259 203.223 103.809 204.153 102.321C204.361 101.992 204.747 101.805 205.144 101.805C205.188 101.805 205.232 101.807 205.276 101.813C205.419 101.828 205.562 101.867 205.694 101.933C206.241 102.204 206.435 102.819 206.13 103.307C205.153 104.864 204.059 106.386 202.87 107.826C202.648 108.098 202.306 108.24 201.957 108.24ZM207.687 99.0875C207.546 99.0875 207.403 99.0649 207.264 99.0155C206.684 98.8057 206.405 98.2174 206.638 97.701C207.354 96.1252 207.968 94.4898 208.462 92.8441C208.596 92.3915 209.054 92.0953 209.555 92.0953C209.599 92.0953 209.642 92.0974 209.689 92.1015C209.742 92.1077 209.795 92.1159 209.848 92.1283C210.453 92.2722 210.811 92.8256 210.649 93.3646C210.132 95.0926 209.488 96.8062 208.737 98.4581C208.559 98.851 208.135 99.0875 207.687 99.0875ZM210.686 88.9664C210.647 88.9664 210.61 88.9644 210.571 88.9602C209.952 88.8841 209.52 88.3739 209.608 87.8226C209.654 87.5264 209.698 87.2302 209.737 86.936C209.922 85.5413 210.03 84.1198 210.058 82.7127C210.067 82.1614 210.573 81.7211 211.19 81.7211C211.197 81.7211 211.203 81.7211 211.208 81.7211C211.247 81.7211 211.287 81.7232 211.326 81.7273C211.894 81.789 212.333 82.2251 212.321 82.7456C212.293 84.2206 212.18 85.712 211.986 87.1746C211.945 87.4832 211.899 87.7918 211.85 88.1024C211.769 88.6167 211.236 88.9664 210.686 88.9664Z" fill="url(#paint4_linear_2_519)"/>
<path d="M123.523 59.6129C123.308 59.6129 123.091 59.5594 122.9 59.4463C122.378 59.1398 122.235 58.5144 122.581 58.0474C123.664 56.5848 124.865 55.1633 126.146 53.8241C126.37 53.5917 126.689 53.4703 127.01 53.4703C127.054 53.4703 127.1 53.4724 127.144 53.4785C127.359 53.5012 127.566 53.5773 127.744 53.713C128.22 54.0731 128.278 54.7108 127.871 55.1345C126.647 56.412 125.504 57.7656 124.47 59.1624C124.25 59.4545 123.89 59.6129 123.523 59.6129ZM131.028 51.767C130.723 51.767 130.418 51.658 130.194 51.442C129.772 51.0326 129.802 50.3949 130.261 50.0163C131.709 48.8314 133.256 47.7082 134.861 46.6817C135.06 46.5521 135.291 46.4904 135.522 46.4904C135.566 46.4904 135.609 46.4925 135.656 46.4986C135.96 46.5295 136.249 46.6714 136.441 46.9101C136.806 47.3626 136.69 47.9942 136.182 48.3192C134.653 49.2984 133.176 50.3702 131.795 51.5016C131.578 51.6806 131.303 51.767 131.028 51.767Z" fill="#DEE8FD"/>
<path d="M189.994 47.6941C189.776 47.6941 189.557 47.6385 189.363 47.5233C187.802 46.5914 186.16 45.7357 184.481 44.9787C183.923 44.7277 183.699 44.1208 183.98 43.623C184.181 43.2733 184.578 43.0696 184.992 43.0696C185.038 43.0696 185.082 43.0717 185.126 43.0779C185.253 43.0902 185.382 43.1252 185.502 43.1787C187.264 43.9707 188.987 44.8696 190.624 45.8488C191.146 46.1574 191.284 46.7848 190.936 47.2477C190.716 47.5377 190.358 47.6941 189.994 47.6941Z" fill="url(#paint5_linear_2_519)"/>
<path d="M140.422 45.7583C140.022 45.7583 139.634 45.569 139.429 45.2337C139.129 44.7462 139.327 44.1332 139.877 43.8637C141.604 43.0182 143.408 42.2591 145.236 41.605C145.373 41.5556 145.516 41.533 145.654 41.533C145.701 41.533 145.747 41.535 145.791 41.5391C146.188 41.5823 146.548 41.8106 146.707 42.1665C146.941 42.6829 146.659 43.2712 146.079 43.479C144.334 44.1003 142.615 44.8244 140.967 45.6328C140.793 45.7172 140.606 45.7583 140.422 45.7583ZM173.861 41.5659C173.859 41.5659 173.857 41.5659 173.857 41.5638C173.247 41.4404 172.866 40.8993 173.007 40.3562C173.127 39.8872 173.593 39.5725 174.108 39.5725C174.152 39.5725 174.196 39.5746 174.242 39.5787C174.282 39.5848 174.323 39.591 174.362 39.5992C175.154 39.7597 175.944 39.9407 176.729 40.1362C175.769 40.6093 174.81 41.0866 173.861 41.5659Z" fill="#DEE8FD"/>
<path d="M179.667 43.0427C179.54 43.0427 179.413 43.0242 179.286 42.9851C177.519 42.4174 175.693 41.9401 173.862 41.5657C174.811 41.0864 175.769 40.6091 176.73 40.136C177.852 40.4178 178.963 40.7367 180.055 41.0864C180.641 41.2756 180.949 41.8517 180.736 42.3762C180.57 42.7897 180.131 43.0427 179.667 43.0427Z" fill="url(#paint6_linear_2_519)"/>
<path d="M151.15 41.9237C150.649 41.9237 150.192 41.6254 150.056 41.1728C149.897 40.6359 150.257 40.0826 150.86 39.9386C152.762 39.488 154.718 39.1363 156.674 38.8935C156.727 38.8873 156.78 38.8853 156.831 38.8853C156.877 38.8853 156.921 38.8874 156.965 38.8915C157.464 38.945 157.879 39.2906 157.951 39.7534C158.039 40.3047 157.607 40.8149 156.988 40.891C155.12 41.1255 153.256 41.4588 151.441 41.8887C151.344 41.9113 151.247 41.9237 151.15 41.9237ZM168.396 40.7388C168.354 40.7388 168.315 40.7367 168.273 40.7326C166.641 40.5783 164.985 40.5022 163.345 40.5022C163.105 40.5022 162.865 40.5022 162.625 40.5063C162.623 40.5063 162.62 40.5063 162.618 40.5063C161.999 40.5063 161.484 40.0681 161.475 39.5127C161.466 38.9552 161.964 38.4986 162.59 38.4883C162.835 38.4842 163.082 38.4841 163.327 38.4841C165.054 38.4841 166.793 38.5644 168.511 38.7269L168.527 38.7289C169.141 38.7927 169.585 39.2864 169.52 39.8357C169.458 40.3541 168.966 40.7388 168.396 40.7388Z" fill="#DEE8FD"/>
<path d="M196.727 52.5593C196.443 52.5593 196.157 52.4647 195.937 52.2734C195.286 51.7077 194.6 51.1481 193.903 50.6091C193.43 50.245 193.379 49.6073 193.788 49.1856C194.012 48.9552 194.326 48.8379 194.644 48.8379C194.688 48.8379 194.734 48.84 194.778 48.8441C194.995 48.8667 195.208 48.947 195.386 49.0828C196.118 49.6485 196.836 50.2347 197.517 50.8272C197.965 51.216 197.974 51.8558 197.538 52.2549C197.316 52.4565 197.02 52.5593 196.727 52.5593Z" fill="url(#paint7_linear_2_519)"/>
<path d="M192.113 61.6889C191.984 61.5037 191.735 61.4132 191.497 61.4646L184.708 62.9067C182.378 60.8743 179.669 59.1586 176.646 57.8605L175.863 51.687C175.836 51.469 175.658 51.2921 175.418 51.2448L167.248 49.6217C167.008 49.5743 166.76 49.6669 166.633 49.852L162.978 55.1451C159.625 55.178 156.353 55.7046 153.277 56.6612L147.818 52.7856C147.626 52.6498 147.359 52.6374 147.153 52.7547L140.085 56.7538C139.879 56.871 139.777 57.0911 139.835 57.3051L141.454 63.3531C139.172 65.4267 137.247 67.8418 135.789 70.5325L128.86 71.232C128.615 71.2566 128.416 71.415 128.363 71.6269L126.541 78.9072C126.488 79.1211 126.592 79.3391 126.8 79.4543L132.741 82.7088C132.778 85.6978 133.369 88.6107 134.443 91.3529L130.093 96.216C129.94 96.3867 129.926 96.6254 130.058 96.8084L134.547 103.103C134.679 103.288 134.926 103.377 135.164 103.328L141.955 101.885C144.283 103.916 146.994 105.632 150.014 106.93L150.799 113.105C150.827 113.321 151.005 113.498 151.243 113.545L159.415 115.171C159.653 115.218 159.9 115.125 160.029 114.938L163.682 109.647C167.038 109.614 170.307 109.088 173.386 108.131L178.845 112.005C179.036 112.14 179.304 112.153 179.51 112.037L186.576 108.036C186.784 107.921 186.883 107.699 186.827 107.487L185.209 101.439C187.488 99.3634 189.414 96.9504 190.871 94.2576L197.803 93.5602C198.046 93.5355 198.244 93.3771 198.297 93.1632L200.119 85.885C200.175 85.6711 200.071 85.453 199.861 85.3378L193.919 82.0813C193.884 79.0944 193.293 76.1794 192.219 73.4393L196.568 68.5762C196.72 68.4054 196.734 68.1668 196.602 67.9837L192.113 61.6889Z" fill="#91B3FA"/>
<path d="M162.583 87.9707C162.886 88.0016 163.193 88.014 163.507 88.0078C166.98 87.9214 169.726 85.3335 169.631 82.2395C169.583 80.7399 168.885 79.3472 167.661 78.3166C166.437 77.286 164.837 76.7449 163.156 76.784C161.473 76.8252 159.909 77.4485 158.752 78.5367C157.595 79.627 156.986 81.0526 157.032 82.5522C157.12 85.3664 159.533 87.6457 162.583 87.9707ZM164.361 74.8174C166.176 75.0108 167.867 75.7122 169.218 76.8519C170.88 78.2528 171.832 80.1454 171.894 82.184C172.026 86.3888 168.292 89.9065 163.569 90.0238C158.842 90.1349 154.898 86.8146 154.767 82.6078C154.704 80.5691 155.536 78.6313 157.106 77.1522C158.678 75.6711 160.805 74.8236 163.094 74.768C163.521 74.7577 163.946 74.7742 164.361 74.8174Z" fill="#BDD0FB"/>
<path d="M165.694 63.6165C166.405 63.6926 167.119 63.7996 167.832 63.9415C169.25 64.2233 170.638 64.6327 171.959 65.1614C172.019 65.1861 172.076 65.2108 172.136 65.2354C172.594 65.4226 172.843 65.8464 172.788 66.2681C172.774 66.371 172.741 66.4738 172.691 66.5726C172.43 67.0786 171.755 67.2967 171.187 67.0663C169.961 66.5623 168.666 66.1735 167.34 65.9123C167.269 65.8979 167.195 65.8835 167.123 65.8691C163.98 65.2725 160.791 65.398 157.789 66.19C156.161 66.622 154.589 67.2494 153.109 68.0702L153.074 68.0908C153.037 68.1114 153 68.1319 152.963 68.1525C148.663 70.5861 145.684 74.365 144.576 78.7941C144.433 79.368 144.324 79.942 144.246 80.518C143.731 84.3875 144.715 88.2672 147.093 91.6018C149.825 95.4322 154.067 98.0839 159.039 99.0714C164.006 100.057 169.116 99.2627 173.416 96.8311C177.713 94.3975 180.692 90.6185 181.8 86.1895C181.944 85.6259 182.05 85.0581 182.126 84.4883C182.456 82.0197 182.177 79.5141 181.295 77.1525C181.242 77.0064 181.225 76.8583 181.246 76.7143C181.295 76.3399 181.583 76.0026 182.013 75.8771C182.606 75.7022 183.248 75.9861 183.445 76.5168C184.431 79.1582 184.745 81.9621 184.377 84.7248C184.292 85.3626 184.17 85.9982 184.013 86.6277C182.773 91.5834 179.44 95.8108 174.628 98.5344C169.818 101.256 164.11 102.151 158.544 101.042C152.984 99.9374 148.236 96.9689 145.181 92.6818C142.521 88.9522 141.419 84.6137 141.997 80.2835C142.082 79.6396 142.205 78.9957 142.366 78.3559C144.768 68.7614 154.965 62.4789 165.694 63.6165Z" fill="#BDD0FB"/>
<path d="M368.895 223.644C368.285 223.644 367.666 223.588 367.043 223.475L232.966 198.855C228.22 197.983 225.2 193.815 226.264 189.604L264.537 38.1591C265.964 32.5123 271.469 28.6263 277.667 28.4041C277.143 28.8752 276.755 29.482 276.582 30.1856L237.508 189.153C237.134 190.678 238.101 192.212 239.764 192.712C267.049 200.927 346.38 212.763 365.657 215.575C365.895 215.61 366.13 215.627 366.364 215.627C368.444 215.627 370.278 214.292 370.638 212.405L399.819 59.4505C400.175 57.5888 398.736 55.8361 396.637 55.5646C358.205 50.5699 314.755 37.9472 292.492 30.9426L397.829 52.0695C404.258 53.3593 408.423 58.9095 407.306 64.6921L377.875 216.894C377.108 220.862 373.24 223.644 368.895 223.644Z" fill="url(#paint8_linear_2_519)"/>
<path d="M253.199 200.62C253.139 200.62 253.079 200.614 253.018 200.602L238.119 197.434C232.898 196.323 229.61 191.624 230.79 186.959L235.868 166.862C235.963 166.488 236.381 166.255 236.799 166.338C237.219 166.422 237.482 166.792 237.387 167.167L232.31 187.263C231.317 191.192 234.085 195.148 238.482 196.084L253.379 199.252C253.799 199.341 254.055 199.715 253.956 200.087C253.871 200.406 253.552 200.62 253.199 200.62Z" fill="white"/>
<path d="M238.203 161.483C238.145 161.483 238.09 161.479 238.032 161.466C237.612 161.382 237.348 161.012 237.443 160.637L238.265 157.383C238.36 157.008 238.775 156.774 239.196 156.858C239.616 156.943 239.877 157.313 239.785 157.687L238.962 160.942C238.879 161.265 238.558 161.483 238.203 161.483Z" fill="white"/>
<path d="M281.99 27.5547C297.413 32.6667 350.622 49.5846 396.637 55.5647C398.736 55.8363 400.175 57.589 399.819 59.4507L370.638 212.406C370.239 214.504 368.015 215.919 365.657 215.576C346.38 212.763 267.049 200.927 239.764 192.713C238.101 192.213 237.134 190.678 237.508 189.154L276.582 30.1857C277.113 28.0257 279.662 26.7833 281.99 27.5547Z" fill="#91B3FA"/>
<path d="M282.704 31.8169C297.545 36.7376 348.751 53.0179 393.035 58.7717C395.053 59.035 396.439 60.7198 396.095 62.5116L368.012 209.708C367.629 211.727 365.489 213.088 363.221 212.757C344.669 210.05 268.326 198.66 242.066 190.756C240.468 190.275 239.535 188.798 239.896 187.331L277.499 34.3492C278.009 32.2715 280.464 31.0743 282.704 31.8169Z" fill="#BDD0FB"/>
<path d="M383.891 70.1744C383.426 70.1744 382.898 70.123 382.348 70.0119L344.715 62.4643C343.043 62.129 341.586 61.1744 341.475 60.3433C341.394 59.7221 342.078 59.3518 343.119 59.3518C343.477 59.3518 343.877 59.395 344.302 59.4876L382.819 67.8581C384.484 68.2202 385.743 68.9895 385.616 69.5676C385.53 69.9564 384.842 70.1744 383.891 70.1744Z" fill="#E5ECFD"/>
<path d="M382.422 75.9878C381.955 75.9878 381.426 75.9364 380.877 75.8253L343.246 68.2776C341.574 67.9423 340.117 66.9878 340.006 66.1567C339.925 65.5355 340.609 65.1652 341.65 65.1652C342.008 65.1652 342.408 65.2084 342.833 65.3009L381.35 73.6715C383.015 74.0335 384.274 74.8029 384.147 75.383C384.061 75.7698 383.371 75.9878 382.422 75.9878Z" fill="#E5ECFD"/>
<path d="M380.933 81.886C380.466 81.886 379.937 81.8345 379.388 81.7235L341.755 74.1758C340.083 73.8405 338.626 72.886 338.517 72.0549C338.434 71.4357 339.117 71.0634 340.161 71.0634C340.517 71.0634 340.916 71.1066 341.341 71.1991L379.859 79.5697C381.524 79.9317 382.782 80.7011 382.655 81.2812C382.572 81.6679 381.882 81.886 380.933 81.886Z" fill="#E5ECFD"/>
<path d="M381.918 94.8807C381.459 94.8807 380.937 94.8293 380.39 94.7182L287.648 76.1175C285.976 75.7822 284.204 74.7639 283.71 73.8567C283.329 73.1532 283.817 72.7191 284.83 72.7191C285.126 72.7191 285.468 72.7562 285.846 72.8343L380.771 92.5747C382.438 92.9203 383.72 93.6835 383.616 94.2656C383.546 94.6606 382.868 94.8807 381.918 94.8807Z" fill="#E5ECFD"/>
<path d="M380.45 100.694C379.99 100.694 379.468 100.643 378.921 100.532L286.179 81.9309C284.507 81.5956 282.736 80.5773 282.242 79.6701C281.858 78.9665 282.348 78.5325 283.362 78.5325C283.657 78.5325 283.999 78.5695 284.375 78.6477L379.302 98.388C380.969 98.7336 382.251 99.4969 382.147 100.081C382.078 100.474 381.399 100.694 380.45 100.694Z" fill="#E5ECFD"/>
<path d="M297.237 97.4481C297.427 99.6966 296.466 103.906 295.367 108.38C295.136 109.359 293.811 109.556 292.658 109.779L292.631 109.785L279.459 107.405C278.099 107.152 277.157 106.164 277.256 105.101L278.223 95.0227C278.251 94.6833 278.429 94.3912 278.75 94.1608C279.122 93.8934 279.62 93.7596 280.154 93.8234C281.292 93.9386 282.846 94.0929 284.576 94.2596C287.326 94.5085 290.573 94.8047 293.021 95.0968C293.734 95.1955 294.365 95.284 294.919 95.3725C295.372 95.4383 295.801 95.5926 296.157 95.8312C296.769 96.2283 297.18 96.8186 297.237 97.4481ZM296.538 94.8952C296.124 94.6689 295.66 94.5064 295.157 94.4241L295.104 94.4056C294.7 94.3439 294.231 94.2822 293.73 94.2122C291.257 93.8831 287.8 93.5622 284.682 93.2865C282.969 93.1158 281.415 92.9718 280.292 92.8545C279.47 92.7619 278.66 92.9615 278.048 93.3997C277.503 93.7967 277.18 94.3336 277.124 94.9425L276.168 105.006C276.018 106.567 277.337 107.999 279.233 108.343L292.413 110.696L292.446 110.704C294.289 111.017 296.076 110.073 296.432 108.581C297.547 104.033 298.538 99.7604 298.332 97.3761C298.251 96.3455 297.561 95.4342 296.538 94.8952Z" fill="white"/>
<path d="M291.702 108.594C291.534 108.594 291.361 108.579 291.187 108.546L280.657 106.658C279.362 106.427 278.454 105.454 278.554 104.407L279.32 96.366C279.392 95.6007 280.17 95.0391 281.103 95.0391C281.188 95.0391 281.272 95.0453 281.357 95.0535C284.167 95.358 290.312 95.8394 293.178 96.296C294.39 96.4894 295.314 97.3205 295.397 98.3059C295.559 100.217 294.707 103.827 293.891 107.154C293.684 108.011 292.76 108.594 291.702 108.594Z" fill="#E5ECFD"/>
<path d="M371.919 119.649C371.688 119.649 371.448 119.63 371.208 119.589L308.691 108.931C307.01 108.645 305.537 107.164 305.419 105.642L305.368 105.004C305.267 103.677 306.22 102.762 307.576 102.762C307.777 102.762 307.984 102.782 308.199 102.823L372.058 115.119C373.732 115.442 374.914 116.697 374.683 117.906C374.487 118.945 373.312 119.649 371.919 119.649Z" fill="#E5ECFD"/>
<path d="M281.588 96.6974C282.678 96.3518 283.872 96.8722 284.237 97.8514L285.948 102.453C286.119 102.914 286.807 103.002 287.119 102.605L296.328 90.8983C296.787 90.314 297.808 90.7131 297.646 91.4105C296.739 95.317 293.972 102.564 285.606 107.6C285.606 107.6 282.022 105.601 280.214 98.9685C279.953 98.0098 280.544 97.0265 281.588 96.6974Z" fill="url(#paint9_linear_2_519)"/>
<path d="M291.825 122.654C292.014 124.903 291.049 129.101 289.952 133.576C289.719 134.555 288.493 135.168 287.237 134.952L287.218 134.942L274.04 132.586C272.682 132.348 271.737 131.358 271.839 130.295L272.809 120.229C272.836 119.89 273.014 119.589 273.335 119.361C273.707 119.093 274.224 118.966 274.737 119.021C275.878 119.147 277.432 119.293 279.161 119.46C281.912 119.709 285.161 120.013 287.608 120.307C288.322 120.406 288.966 120.49 289.504 120.581C289.959 120.647 290.373 120.803 290.724 121.027C291.338 121.424 291.765 122.025 291.825 122.654ZM291.123 120.099C290.71 119.875 290.248 119.713 289.742 119.628L289.691 119.612C289.285 119.55 288.816 119.488 288.315 119.418C285.826 119.091 282.385 118.766 279.265 118.478C277.554 118.322 276 118.176 274.878 118.061C274.058 117.968 273.247 118.166 272.633 118.606C272.088 119.003 271.767 119.54 271.71 120.136L270.756 130.212C270.601 131.761 271.922 133.205 273.82 133.547L287.001 135.902L287.033 135.911C288.876 136.223 290.663 135.279 291.019 133.788C292.132 129.239 293.123 124.967 292.913 122.568C292.836 121.539 292.144 120.628 291.123 120.099Z" fill="white"/>
<path d="M286.29 133.798C286.119 133.798 285.945 133.783 285.772 133.752L275.242 131.862C273.949 131.632 273.039 130.659 273.141 129.611L273.908 121.57C273.979 120.805 274.757 120.243 275.69 120.243C275.773 120.243 275.859 120.249 275.944 120.258C278.752 120.562 284.897 121.043 287.763 121.5C288.977 121.691 289.899 122.525 289.982 123.51C290.144 125.421 289.291 129.031 288.479 132.358C288.268 133.216 287.345 133.798 286.29 133.798Z" fill="#E5ECFD"/>
<path d="M366.507 144.853C366.273 144.853 366.036 144.834 365.793 144.793L303.278 134.135C301.595 133.849 300.122 132.368 300.004 130.846L299.955 130.208C299.852 128.881 300.808 127.966 302.163 127.966C302.362 127.966 302.569 127.984 302.787 128.028L366.643 140.323C368.317 140.644 369.499 141.899 369.271 143.11C369.075 144.149 367.897 144.853 366.507 144.853Z" fill="#E5ECFD"/>
<path d="M276.173 121.901C277.263 121.555 278.459 122.076 278.822 123.055L280.533 127.655C280.704 128.118 281.392 128.206 281.704 127.809L290.913 116.102C291.372 115.518 292.395 115.917 292.234 116.614C291.326 120.521 288.56 127.77 280.193 132.804C280.193 132.804 276.607 130.804 274.801 124.172C274.538 123.214 275.132 122.23 276.173 121.901Z" fill="url(#paint10_linear_2_519)"/>
<path d="M285.394 146.634C285.583 148.897 284.62 153.096 283.523 157.57C283.276 158.551 282.024 159.13 280.775 158.938L267.61 156.581C266.25 156.328 265.306 155.34 265.405 154.277L266.363 144.213C266.393 143.886 266.583 143.571 266.89 143.359C267.259 143.078 267.779 142.964 268.308 143.016C269.435 143.146 271 143.29 272.714 143.446C275.466 143.707 278.729 144.009 281.165 144.304C281.872 144.39 282.519 144.474 283.059 144.565C283.512 144.631 283.943 144.797 284.313 145.032C284.927 145.429 285.331 146.005 285.394 146.634ZM284.698 144.108C284.264 143.872 283.784 143.699 283.262 143.606C282.842 143.549 282.385 143.468 281.872 143.415C279.348 143.08 275.796 142.751 272.836 142.473C271.125 142.316 269.573 142.17 268.43 142.045C267.629 141.963 266.802 142.164 266.204 142.6C265.657 142.985 265.338 143.534 265.278 144.131L264.322 154.194C264.172 155.756 265.491 157.186 267.389 157.529L280.57 159.899L280.604 159.905C282.447 160.218 284.234 159.274 284.59 157.782C285.703 153.234 286.691 148.947 286.486 146.562C286.41 145.546 285.705 144.651 284.698 144.108Z" fill="white"/>
<path d="M279.856 157.788C279.685 157.788 279.512 157.774 279.339 157.743L268.809 155.854C267.513 155.622 266.606 154.651 266.707 153.604L267.472 145.561C267.546 144.797 268.324 144.236 269.257 144.236C269.34 144.236 269.425 144.24 269.511 144.248C272.319 144.553 278.464 145.036 281.329 145.491C282.544 145.684 283.465 146.517 283.548 147.5C283.71 149.412 282.858 153.022 282.045 156.348C281.835 157.208 280.911 157.788 279.856 157.788Z" fill="#E5ECFD"/>
<path d="M360.073 168.845C359.84 168.845 359.6 168.825 359.36 168.784L296.845 158.125C295.161 157.84 293.688 156.358 293.57 154.836L293.522 154.2C293.418 152.874 294.372 151.956 295.727 151.956C295.928 151.956 296.136 151.977 296.351 152.018L360.209 164.313C361.884 164.636 363.066 165.891 362.837 167.103C362.639 168.14 361.463 168.845 360.073 168.845Z" fill="#E5ECFD"/>
<path d="M269.74 145.892C270.83 145.546 272.026 146.067 272.388 147.046L274.1 151.648C274.27 152.108 274.959 152.199 275.27 151.8L284.479 140.093C284.939 139.51 285.962 139.907 285.798 140.605C284.89 144.511 282.124 151.761 273.76 156.797C273.76 156.797 270.174 154.795 268.366 148.163C268.105 147.206 268.698 146.223 269.74 145.892Z" fill="url(#paint11_linear_2_519)"/>
<path d="M278.526 171.341C278.718 173.604 277.755 177.802 276.656 182.277C276.422 183.243 275.215 183.867 273.942 183.653L273.924 183.642L260.741 181.273C259.385 181.034 258.441 180.047 258.542 178.983L259.512 168.917C259.542 168.59 259.731 168.276 260.041 168.062C260.408 167.782 260.93 167.667 261.442 167.722C262.579 167.835 264.137 167.994 265.862 168.148C268.617 168.409 271.866 168.714 274.314 169.008C275.023 169.092 275.653 169.181 276.208 169.269C276.665 169.347 277.097 169.514 277.448 169.738C278.06 170.135 278.466 170.711 278.526 171.341ZM277.847 168.81C277.415 168.574 276.935 168.403 276.397 168.313C275.974 168.255 275.503 168.179 275.004 168.121C272.531 167.792 269.091 167.467 265.985 167.177C264.26 167.023 262.706 166.877 261.579 166.747C260.761 166.655 259.953 166.866 259.339 167.307C258.805 167.687 258.473 168.241 258.415 168.837L257.457 178.901C257.307 180.462 258.625 181.892 260.523 182.235L273.704 184.603L273.739 184.611C275.582 184.924 277.364 183.965 277.736 182.472C278.852 177.938 279.826 173.653 279.621 171.269C279.542 170.24 278.856 169.356 277.847 168.81Z" fill="white"/>
<path d="M272.995 182.493C272.825 182.493 272.651 182.476 272.478 182.445L261.948 180.557C260.655 180.324 259.745 179.353 259.845 178.306L260.611 170.263C260.685 169.5 261.463 168.938 262.396 168.938C262.479 168.938 262.565 168.942 262.65 168.95C265.458 169.255 271.603 169.738 274.469 170.193C275.683 170.386 276.605 171.219 276.688 172.203C276.85 174.114 275.997 177.724 275.185 181.051C274.974 181.91 274.051 182.493 272.995 182.493Z" fill="#E5ECFD"/>
<path d="M353.21 193.548C352.98 193.548 352.739 193.527 352.499 193.486L289.984 182.83C288.301 182.542 286.828 181.061 286.71 179.539L286.662 178.903C286.558 177.576 287.514 176.659 288.869 176.659C289.068 176.659 289.276 176.679 289.49 176.72L353.349 189.016C355.023 189.339 356.205 190.594 355.977 191.805C355.781 192.842 354.603 193.548 353.21 193.548Z" fill="#E5ECFD"/>
<path d="M262.879 170.594C263.969 170.25 265.165 170.771 265.528 171.748L267.239 176.35C267.41 176.811 268.098 176.901 268.41 176.504L277.619 164.797C278.078 164.213 279.101 164.61 278.937 165.309C278.03 169.216 275.263 176.463 266.899 181.499C266.899 181.499 263.313 179.497 261.505 172.865C261.244 171.908 261.835 170.925 262.879 170.594Z" fill="url(#paint12_linear_2_519)"/>
<path d="M341.422 25.2732C341.826 23.6481 343.641 22.6298 345.449 22.9898C347.276 23.3601 348.417 24.9647 348.017 26.5898C347.599 28.217 345.798 29.2332 343.971 28.863C342.149 28.505 341.004 26.886 341.422 25.2732ZM351.987 21.3215C348.44 17.8696 344.77 17.1866 342.022 17.3409C339.512 17.4931 337.476 19.2108 337.152 21.4181L335.744 31.095L335.538 32.4444L348.481 36.1411C348.481 36.1411 349.287 35.524 350.299 34.479C352.94 31.78 357.025 26.2134 351.987 21.3215Z" fill="url(#paint13_linear_2_519)"/>
<path d="M338.422 25.5346C338.053 25.4935 337.718 25.7259 337.674 26.0551L337.411 27.8057C337.376 28.0484 337.491 28.2624 337.711 28.3879C337.801 28.4393 337.884 28.466 337.981 28.4743C338.353 28.5278 338.688 28.2953 338.734 27.9662L338.992 26.2032C339.055 25.8843 338.792 25.5737 338.422 25.5346ZM348.105 19.7046C346.493 19.0546 344.8 18.7831 343.073 18.8797C340.526 19.0237 338.436 20.7806 338.108 23.0311L337.916 24.3641C337.884 24.6068 338.002 24.8352 338.214 24.9463C338.29 25.0018 338.392 25.0244 338.487 25.0326C338.861 25.0861 339.196 24.8537 339.24 24.5246L339.445 23.1895C339.69 21.4985 341.246 20.1798 343.161 20.0749C344.671 19.9926 346.151 20.221 347.555 20.7846C347.887 20.9307 348.294 20.795 348.437 20.4884C348.601 20.1943 348.432 19.8363 348.105 19.7046Z" fill="#91B3FA"/>
<path d="M315.727 35.8118L317.101 30.3809C317.575 28.5069 319.697 27.3549 321.784 27.8404L363.491 37.5522C365.343 37.9842 366.523 39.599 366.213 41.2817L365.246 46.5686L315.727 35.8118Z" fill="url(#paint14_linear_2_519)"/>
<path d="M331.356 31.6112L333.164 31.9733L331.356 31.6112Z" fill="#91B3FA"/>
<path d="M318.143 34.7814C317.912 34.6497 317.787 34.3988 317.852 34.1478L318.406 31.9508C318.635 31.0477 319.242 30.2783 320.119 29.7846C320.997 29.2909 322.038 29.1304 323.052 29.332L329.698 30.6651C330.056 30.7391 330.287 31.058 330.204 31.381C330.123 31.7019 329.763 31.9055 329.402 31.8335L322.756 30.5005C321.387 30.2248 320.025 30.9942 319.715 32.212L319.161 34.4111C319.078 34.732 318.72 34.9336 318.357 34.8616C318.279 34.8452 318.207 34.8184 318.143 34.7814Z" fill="#91B3FA"/>
<path d="M303.061 31.1835L376.561 45.923C379.203 46.4516 381.034 48.5993 380.898 51.0103L380.879 51.3415C380.731 53.9829 377.949 55.8672 375.053 55.2851L299.648 40.1609C297.914 39.8153 296.861 38.2478 297.332 36.7214L298.256 33.7488C298.833 31.8871 300.946 30.7598 303.061 31.1835Z" fill="#91B3FA"/>
<path d="M638 572.94H475.49V286.858C475.49 284.477 477.656 282.548 480.328 282.548H633.16C635.834 282.548 638 284.477 638 286.858V572.94Z" fill="url(#paint15_linear_2_519)"/>
<path d="M619.718 572.94H457.208V286.858C457.208 284.477 459.374 282.548 462.048 282.548H614.88C617.552 282.548 619.718 284.477 619.718 286.858V572.94Z" fill="url(#paint16_linear_2_519)"/>
<path d="M252.247 572.729H132.4V459.522C132.4 457.142 134.566 455.212 137.24 455.212H247.41C250.081 455.212 252.247 457.142 252.247 459.522V572.729Z" fill="url(#paint17_linear_2_519)"/>
<path d="M234.296 572.729H114.448V459.522C114.448 457.142 116.614 455.212 119.287 455.212H229.455C232.13 455.212 234.296 457.142 234.296 459.522V572.729Z" fill="url(#paint18_linear_2_519)"/>
<path d="M522.29 283.14C522.288 283.033 522.297 282.922 522.327 282.811C524.175 276.288 531.726 272.945 531.726 272.945L535.358 273.198C537.448 278.948 538.794 281.754 538.459 283.325C538.448 283.369 538.434 283.41 538.42 283.453C535.425 283.692 529.257 283.848 522.29 283.14Z" fill="url(#paint19_linear_2_519)"/>
<path d="M538.42 283.453C538.259 283.978 537.825 284.387 537.268 284.49C533.005 285.288 526.232 284.646 523.387 284.315C522.759 284.243 522.302 283.725 522.291 283.14C529.257 283.848 535.425 283.692 538.42 283.453Z" fill="url(#paint20_linear_2_519)"/>
<path d="M528.735 267.909L530.326 274.731C530.442 275.231 530.873 275.605 531.395 275.648C532.035 275.702 532.945 275.732 533.859 275.613C534.679 275.506 535.252 274.764 535.106 273.965L534 267.909H528.735Z" fill="url(#paint21_linear_2_519)"/>
<path d="M569.283 283.397C565.403 283.301 563.397 282.893 562.36 282.515C562.357 282.858 562.36 283.208 562.371 283.57C562.385 283.959 562.708 284.268 563.103 284.266L584.403 284.142C585.082 284.138 585.479 283.437 585.184 282.881C582.392 283.087 575.28 283.546 569.283 283.397Z" fill="url(#paint22_linear_2_519)"/>
<path d="M585.184 282.881C585.158 282.832 585.138 282.782 585.101 282.737C583.219 280.396 578.429 275.735 568.962 273.713L564.419 273.585C564.419 273.585 562.399 276.716 562.36 282.515C563.396 282.894 565.403 283.301 569.283 283.398C575.28 283.546 582.392 283.087 585.184 282.881Z" fill="url(#paint23_linear_2_519)"/>
<path d="M563.579 267.452C563.63 267.755 564.251 272.338 564.491 274.115C564.549 274.537 564.893 274.864 565.325 274.91C566.098 274.992 567.35 275.068 568.444 274.866C569.036 274.759 569.463 274.253 569.463 273.667V266.471L563.579 267.452Z" fill="url(#paint24_linear_2_519)"/>
<path d="M531.77 178.351C531.77 178.351 524.502 235.9 528.541 271.867C528.541 271.867 533.386 271.867 535.808 271.147C535.808 271.147 543.359 214.88 545.803 198.781C545.895 198.174 546.867 198.145 547.001 198.746C550.015 212.292 561.854 265.412 563.262 270.427C563.262 270.427 567.299 271.867 570.53 270.427C570.53 270.427 564.068 193.459 559.224 179.791L531.77 178.351Z" fill="url(#paint25_linear_2_519)"/>
<path d="M517.236 111.453C517.236 111.453 547.92 107.137 572.144 112.893L570.53 135.193C570.53 135.193 564.069 166.124 559.224 179.792C559.224 179.792 540.653 182.67 531.77 178.352C531.77 178.352 524.503 139.509 520.466 133.753C520.466 133.753 516.427 118.647 517.236 111.453Z" fill="url(#paint26_linear_2_519)"/>
<path d="M538.552 91.7991L535.494 110.213C535.494 110.213 544.034 113.708 550.015 110.062L548.728 97.0675L538.552 91.7991Z" fill="url(#paint27_linear_2_519)"/>
<path d="M531.047 136.293C531.047 136.293 461.715 119.48 496.141 76.2431L498.471 79.1807C498.471 79.1807 488.098 108.466 522.457 111.247C522.457 111.247 531.356 131.695 531.047 136.293Z" fill="url(#paint28_linear_2_519)"/>
<path d="M495.908 76.4652C495.908 76.4652 495.125 68.1174 499.81 67.422C504.495 66.7267 506.059 70.9007 506.839 72.9866C507.62 75.0746 499.81 79.2485 498.249 79.2485C496.688 79.2485 495.908 76.4652 495.908 76.4652Z" fill="url(#paint29_linear_2_519)"/>
<path d="M556.06 138.379C556.06 138.379 625.392 121.566 590.966 78.3309L588.636 81.2685C588.636 81.2685 599.009 110.552 564.65 113.335C564.65 113.335 555.751 133.781 556.06 138.379Z" fill="url(#paint30_linear_2_519)"/>
<path d="M591.199 78.5531C591.199 78.5531 591.98 70.2052 587.294 69.5078C582.609 68.8125 581.048 72.9865 580.268 75.0745C579.487 77.1604 587.294 81.3344 588.858 81.3344C590.419 81.3344 591.199 78.5531 591.199 78.5531Z" fill="url(#paint31_linear_2_519)"/>
<path d="M549.209 82.2499C549.209 82.2499 556.044 93.7124 555.169 98.345C554.291 102.976 545.819 102.642 538.42 98.882L533.25 86.5021L549.209 82.2499Z" fill="url(#paint32_linear_2_519)"/>
<path d="M538.748 92.8031C539.048 92.6838 539.159 92.3567 538.979 92.1098C538.432 91.3651 537.404 89.8449 537.076 88.5139C537.076 88.5139 535.848 87.8125 540.205 86.8826C544.562 85.9549 551.061 84.5128 552.425 81.207C553.758 77.9875 550.257 69.8865 544.676 76.3398C544.463 76.5866 544.048 76.5907 543.835 76.3459C542.921 75.2844 540.514 73.0833 537.175 74.4184C534.051 75.6671 533.698 77.7078 533.742 78.7363C533.753 79.0387 533.451 79.2732 533.116 79.2156C531.536 78.9482 527.745 78.7178 525.973 82.1841C524.516 85.0374 525.463 86.6543 526.327 87.4442C526.606 87.6993 526.484 88.121 526.1 88.2259C525.061 88.5098 523.72 89.2936 523.854 91.4618C524.041 94.457 527.8 94.1937 528.871 94.0579C529.047 94.0353 529.225 94.0888 529.342 94.2061C530.262 95.1112 534.397 98.9539 538.875 99.4168C539.263 99.4579 539.563 99.1164 539.436 98.7873L537.499 93.7699C537.409 93.5375 537.533 93.2803 537.787 93.1816L538.748 92.8031Z" fill="url(#paint33_linear_2_519)"/>
<path d="M539.526 93.5149C539.526 93.5149 534.658 90.5403 534.303 93.0459C533.947 95.5495 538.686 96.6747 541.034 95.7408L539.526 93.5149Z" fill="url(#paint34_linear_2_519)"/>
<path d="M435.146 572.94H297.272V405.505C297.272 403.125 299.438 401.194 302.11 401.194H430.305C432.977 401.194 435.146 403.125 435.146 405.505V572.94Z" fill="url(#paint35_linear_2_519)"/>
<path d="M414.857 572.94H276.983V405.505C276.983 403.125 279.152 401.194 281.823 401.194H410.019C412.691 401.194 414.857 403.125 414.857 405.505V572.94Z" fill="url(#paint36_linear_2_519)"/>
<path d="M348.781 322.156L338.203 336.653C343.124 345.194 348.589 349.907 354.058 352.149C355.032 346.827 358.521 342.411 361.082 339.788C351.328 334.847 348.781 322.156 348.781 322.156Z" fill="url(#paint37_linear_2_519)"/>
<path d="M385.123 337.186C374.293 342.896 366.553 342.561 361.082 339.788C358.521 342.411 355.032 346.827 354.058 352.149C371.439 359.273 388.846 341.341 388.846 341.341L385.123 337.186Z" fill="url(#paint38_linear_2_519)"/>
<path d="M385.713 339.669C385.713 339.669 382.789 335.129 386.994 331.642C386.994 331.642 388.35 330.265 389.837 332.29C389.837 332.29 394.361 328.63 395.598 330.105C396.834 331.578 400.113 335.225 396.91 339.387C393.672 343.596 387.142 341.72 385.713 339.669Z" fill="url(#paint39_linear_2_519)"/>
<path d="M390.158 337.363C389.687 337.363 389.179 337.284 388.726 337.046C388.28 336.809 387.717 336.322 387.576 335.334C387.523 334.954 387.825 334.606 388.25 334.559C388.684 334.511 389.068 334.779 389.121 335.159C389.197 335.68 389.44 335.81 389.518 335.851C389.781 335.991 390.165 335.995 390.509 335.951L389.569 333.3C389.44 332.934 389.668 332.545 390.077 332.43C390.488 332.312 390.924 332.516 391.054 332.882L392.241 336.235C392.365 336.583 392.164 336.955 391.783 337.089C391.668 337.13 390.968 337.363 390.158 337.363Z" fill="url(#paint40_linear_2_519)"/>
<path d="M231.848 434.544C230.908 435.048 230.426 436.112 230.65 437.152C231.534 441.252 234.437 452.079 241.484 458.489C241.951 458.913 242.627 458.874 243.038 458.493C241.253 456.835 239.039 454.005 236.453 449.195C232.474 441.804 231.739 437.245 231.848 434.544Z" fill="url(#paint41_linear_2_519)"/>
<path d="M240.951 434.39C240.951 434.39 236.406 432.189 231.88 434.524L231.848 434.544C231.739 437.245 232.473 441.804 236.452 449.195C239.039 454.005 241.253 456.835 243.038 458.493C243.167 458.372 243.271 458.22 243.331 458.033C244.655 453.935 247.451 442.546 240.951 434.39Z" fill="url(#paint42_linear_2_519)"/>
<path d="M247.516 434.645L243.396 438.167C242.669 438.788 241.551 438.889 240.71 438.391C239.976 437.957 239.159 437.247 238.616 436.093C238.29 435.402 238.445 434.6 239.013 434.044L243.126 430.016C244.107 429.054 245.853 429.212 246.597 430.331L247.881 432.269C248.393 433.04 248.243 434.026 247.516 434.645Z" fill="url(#paint43_linear_2_519)"/>
<path d="M380.648 416.986C381.607 417.466 382.881 417.311 383.787 416.624C387.35 413.915 396.483 406.316 399.254 397.688C399.436 397.118 399.064 396.612 398.489 396.485C397.755 398.686 396.085 401.798 392.67 406.18C387.424 412.913 383.339 415.735 380.648 416.986Z" fill="url(#paint44_linear_2_519)"/>
<path d="M376 410.013C376 410.013 376.097 414.621 380.614 416.97L380.648 416.986C383.338 415.736 387.423 412.913 392.67 406.18C396.085 401.798 397.755 398.686 398.489 396.485C398.307 396.444 398.106 396.437 397.896 396.485C393.24 397.485 380.747 400.947 376 410.013Z" fill="url(#paint45_linear_2_519)"/>
<path d="M375.681 402.381L379.986 405.719C380.748 406.312 380.96 407.293 380.477 408.085C380.059 408.774 379.337 409.562 378.094 410.148C377.351 410.5 376.441 410.432 375.769 409.978L370.896 406.69C369.735 405.904 369.756 404.341 370.94 403.582L372.991 402.267C373.808 401.745 374.924 401.792 375.681 402.381Z" fill="url(#paint46_linear_2_519)"/>
<path d="M289.326 368.573C289.326 368.573 280.928 394.061 275.496 405.265C275.496 405.265 266.005 406.554 260.131 409.611C254.256 412.67 241.602 429.619 241.602 429.619C241.602 429.619 244.906 435.206 248.892 436.064L284.916 413.829L313.665 384.045L312.3 370.229L289.326 368.573Z" fill="url(#paint47_linear_2_519)"/>
<path d="M289.843 366.494L287.384 373.474C287.384 373.474 289.633 391.772 315.529 388.686C341.426 385.6 344.68 381.834 344.68 381.834C344.68 381.834 342.433 393.523 370.749 407.573C370.749 407.573 375.053 404.678 376 401.393L356.157 372.256C353.397 368.434 350.836 367.428 345.798 368.129C334.653 369.682 313.785 371.707 310.626 371.225L289.843 366.494Z" fill="url(#paint48_linear_2_519)"/>
<path d="M310.068 314.59C302.521 314.934 290.592 318.128 282.886 324.448C285.255 326.777 288.899 330.564 291.617 334.306C294.044 332.275 297.529 330.584 302.438 329.502C298.196 343.625 293.18 357.082 287.07 369.59C286.689 370.374 287.123 371.279 288.029 371.561C292.758 373.027 306.701 376.524 317.884 370.894L342.678 339.265C345.345 335.865 347.098 331.963 347.802 327.863L348.781 322.156C348.781 322.156 326.511 313.845 310.068 314.59Z" fill="url(#paint49_linear_2_519)"/>
<path d="M296.545 362.451C295.469 360.333 291.779 358.351 290.019 357.5C288.486 354.688 282.371 342.036 291.617 334.306C288.899 330.564 285.255 326.776 282.886 324.448C273.995 331.74 270.742 343.194 286.331 359.232C285.481 363.182 288.257 367.781 289.758 368.427C290.451 368.724 297.979 365.268 296.545 362.451Z" fill="url(#paint50_linear_2_519)"/>
<path d="M303.872 329.006L310.765 327.682L303.872 329.006Z" fill="url(#paint51_linear_2_519)"/>
<path d="M326.816 306.191L320.339 317.487C319.944 318.174 320.062 319.007 320.642 319.583C322.209 321.14 325.913 323.666 332.358 321.856C333.07 321.656 333.58 321.099 333.689 320.443L335.374 310.186L326.816 306.191Z" fill="url(#paint52_linear_2_519)"/>
<path d="M336.476 295.035C336.476 295.035 342.697 305.466 341.9 309.679C341.101 313.892 333.393 313.59 326.661 310.169L321.958 298.906L336.476 295.035Z" fill="url(#paint53_linear_2_519)"/>
<path d="M326.959 304.637C327.232 304.528 327.333 304.23 327.169 304.008C326.671 303.329 325.738 301.947 325.44 300.735C325.44 300.735 324.322 300.097 328.285 299.252C332.25 298.406 338.161 297.094 339.404 294.088C340.616 291.157 337.431 283.788 332.354 289.659C332.16 289.884 331.781 289.888 331.589 289.666C330.756 288.699 328.569 286.695 325.53 287.911C322.685 289.046 322.366 290.904 322.403 291.84C322.415 292.114 322.14 292.327 321.835 292.276C320.399 292.033 316.949 291.823 315.337 294.975C314.011 297.573 314.873 299.042 315.658 299.762C315.912 299.994 315.801 300.377 315.452 300.474C314.508 300.731 313.286 301.445 313.409 303.418C313.577 306.143 317 305.903 317.974 305.779C318.133 305.759 318.295 305.808 318.404 305.913C319.237 306.738 323.001 310.233 327.075 310.655C327.428 310.692 327.7 310.381 327.585 310.083L325.823 305.518C325.74 305.306 325.855 305.074 326.084 304.983L326.959 304.637Z" fill="url(#paint54_linear_2_519)"/>
<path d="M327.668 305.285C327.668 305.285 323.239 302.578 322.916 304.858C322.593 307.137 326.904 308.159 329.04 307.31L327.668 305.285Z" fill="url(#paint55_linear_2_519)"/>
<path d="M116.173 553.338C116.173 553.338 114.383 562.367 113.505 571.303C113.163 574.796 116.185 577.828 120.117 577.974C133.476 578.47 162.052 579.433 172.307 579.026C173.848 578.966 174.857 577.559 174.286 576.281C173.808 575.212 172.887 574.346 171.712 573.866L124.509 554.539L116.173 553.338Z" fill="url(#paint56_linear_2_519)"/>
<path d="M114.707 548.035L116.145 558.833C116.145 558.833 124.414 562.262 130.06 558.401L126.636 546.366L114.707 548.035Z" fill="url(#paint57_linear_2_519)"/>
<path d="M115.788 345.015C115.166 347.836 112.453 485.74 129 547.541C129.271 548.549 128.696 549.588 127.619 549.981C125.082 550.904 120.106 552.242 114.143 552.421C112.296 552.476 110.641 551.406 110.119 549.827C105.389 535.488 82.7241 463.649 79.7674 395.02C76.4639 318.338 79.7674 392.41 79.7674 392.41L81.7053 345.009L115.788 345.015Z" fill="url(#paint58_linear_2_519)"/>
<path d="M61.8745 558.049C61.8745 558.049 59.025 562.606 56.2662 574.716C55.7681 576.905 57.4836 578.997 59.9766 579.215C64.3879 579.602 71.1792 580.099 76.6186 580.067C79.1263 580.05 81.0834 578.104 80.7813 575.886C80.1786 571.466 78.3017 564.214 72.5024 558.561L61.8745 558.049Z" fill="url(#paint59_linear_2_519)"/>
<path d="M59.3722 544.159L62.7328 560.489C62.7328 560.489 66.0553 562.69 72.6284 561.096L71.0244 543.523L59.3722 544.159Z" fill="url(#paint60_linear_2_519)"/>
<path d="M50.2931 349.247C36.7596 422.006 53.2288 529.08 58.7832 550.036C59.1231 551.32 60.2858 552.301 61.7454 552.517C64.2246 552.883 68.3066 553.182 72.3306 552.141C73.717 551.783 74.6913 550.668 74.7479 549.384C75.4928 532.44 74.1518 428.428 86.7617 387.32C87.4011 385.239 88.8291 383.422 90.8047 382.169L115.28 366.669L117.157 341.615L50.2931 349.247Z" fill="url(#paint61_linear_2_519)"/>
<path d="M136.528 211.381C95.9714 210.782 51.2208 220.866 51.2208 220.866C39.1319 283.708 49.1072 356.189 49.1072 356.189C80.5054 363.525 115.925 351.705 115.925 351.705C121.142 325.439 145.493 251.518 145.493 251.518C165.308 249.327 181.632 244.233 195.076 237.5C184.821 226.912 179.988 213.438 177.889 205.473C163.548 209.443 149.037 211.564 136.528 211.381Z" fill="url(#paint62_linear_2_519)"/>
<path d="M256.328 158.163C252.344 153.875 247.301 155.904 247.301 155.904C241.332 178.362 210.037 196.574 177.889 205.473C179.988 213.438 184.821 226.912 195.076 237.5C248.432 210.774 256.328 158.163 256.328 158.163Z" fill="url(#paint63_linear_2_519)"/>
<path d="M255.36 159.253C255.778 160.434 250.95 162.232 248.107 157.402C248.008 155.087 246.428 145.174 247.98 143.288C256.247 133.247 272.278 120.661 272.278 120.661C274.986 123.041 272.753 125.38 272.753 125.38L264.978 132.597C266.604 135.215 268.587 137.425 269.518 140.593C270.222 142.991 269.791 145.555 268.433 147.737C267.068 149.926 265.204 152.775 263.445 155.003C260.113 159.22 255.36 159.253 255.36 159.253Z" fill="url(#paint64_linear_2_519)"/>
<path d="M261.576 137.279L254.492 142.629L252.266 147.957L258.584 154.201C258.584 154.201 260.708 143.631 262.288 141.341C263.865 139.054 263.047 137.947 261.576 137.279Z" fill="url(#paint65_linear_2_519)"/>
<path d="M66.7774 255.85L51.221 220.866C51.221 220.866 13.3385 243.797 7.10852 272.869C14.2666 273.34 27.2914 274.998 40.0405 280.733C42.8423 267.004 66.7774 255.85 66.7774 255.85Z" fill="url(#paint66_linear_2_519)"/>
<path d="M99.8825 288.771C99.8825 288.771 57.35 310.183 42.999 291.9C40.0189 288.102 39.307 284.329 40.0406 280.733C27.2915 274.998 14.2667 273.34 7.10862 272.869C5.23031 281.634 6.22349 290.955 12.0044 300.377C37.1428 341.343 105.511 298.112 105.511 298.112L99.8825 288.771Z" fill="url(#paint67_linear_2_519)"/>
<path d="M94.7721 315.861L117.985 243.645C118.248 242.826 119.033 242.228 119.984 242.129C124.19 241.693 136.376 240.465 150.448 239.405C167.396 238.128 187.079 237.093 198.84 237.974C200.512 238.097 201.523 239.673 200.78 241.014C194.09 253.067 166.578 302.103 152.801 318.165C152.347 318.698 151.64 319.009 150.887 319.002L97.0302 318.556C95.4632 318.544 94.3405 317.202 94.7721 315.861Z" fill="#91B3FA"/>
<path d="M152.855 233.143L169.684 230.646C170.58 230.512 171.314 231.275 171.03 232.045L169.366 236.542C169.22 236.933 168.837 237.216 168.377 237.27L152.183 239.197C151.344 239.298 150.654 238.619 150.846 237.887L151.878 233.96C151.989 233.536 152.374 233.215 152.855 233.143Z" fill="url(#paint68_linear_2_519)"/>
<path d="M140.253 245.836L141.639 239.403C141.78 238.757 142.378 238.27 143.11 238.204L177.104 235.13C178.247 235.028 179.163 235.962 178.895 236.957L176.734 244.974C176.561 245.616 175.933 246.079 175.194 246.112L141.976 247.601C140.895 247.65 140.05 246.784 140.253 245.836Z" fill="url(#paint69_linear_2_519)"/>
<path d="M100.381 298.415C100.381 298.415 97.1468 286.569 98.4515 282.367C99.7557 278.164 102.283 272.762 110.706 273.961C119.13 275.163 129.068 278.324 129.068 278.324C129.068 278.324 128.564 283.796 122.163 282.031L126.133 284.767C126.133 284.767 125.565 289.151 120.158 286.81L123.851 290.439C123.851 290.439 121.528 294.039 117.549 291.729C113.57 289.421 111.663 299.84 100.381 298.415Z" fill="url(#paint70_linear_2_519)"/>
<path d="M95.4477 182.048L82.543 215.294C82.3294 215.845 82.5834 216.454 83.1558 216.736C86.6734 218.468 99.347 223.477 114.62 214.851C116.211 213.952 117.294 212.488 117.535 210.821L121.715 182.048H95.4477Z" fill="url(#paint71_linear_2_519)"/>
<path d="M123.525 151.261C123.525 151.261 137.697 175.025 135.88 184.624C134.065 194.222 116.502 193.533 101.166 185.737L90.4493 160.078L123.525 151.261Z" fill="url(#paint72_linear_2_519)"/>
<path d="M101.844 173.137C102.467 172.89 102.697 172.211 102.323 171.703C101.188 170.158 99.0598 167.006 98.3811 164.246C98.3811 164.246 95.8334 162.793 104.865 160.866C113.896 158.94 127.363 155.951 130.194 149.103C132.954 142.428 125.703 125.635 114.134 139.015C113.693 139.523 112.831 139.535 112.392 139.025C110.495 136.826 105.509 132.261 98.5857 135.03C92.1073 137.618 91.3776 141.848 91.4665 143.979C91.4926 144.606 90.8635 145.094 90.1717 144.976C86.8961 144.421 79.036 143.942 75.3672 151.125C72.3453 157.042 74.3093 160.391 76.0983 162.028C76.6779 162.559 76.4236 163.433 75.6293 163.649C73.4764 164.238 70.6963 165.863 70.9748 170.355C71.3598 176.568 79.1552 176.021 81.3746 175.737C81.7383 175.69 82.1043 175.801 82.3504 176.046C84.2539 177.922 92.828 185.887 102.108 186.848C102.911 186.93 103.534 186.222 103.271 185.541L99.2549 175.142C99.0681 174.659 99.3277 174.128 99.8519 173.923L101.844 173.137Z" fill="url(#paint73_linear_2_519)"/>
<path d="M103.458 174.612C103.458 174.612 93.3683 168.446 92.6309 173.639C91.8939 178.833 101.717 181.161 106.582 179.226L103.458 174.612Z" fill="url(#paint74_linear_2_519)"/>
</g>
<defs>
<linearGradient id="paint0_linear_2_519" x1="721.21" y1="751.054" x2="227.061" y2="62.156" gradientUnits="userSpaceOnUse">
<stop stop-color="#202024"/>
<stop offset="1" stop-color="#E9EFFD"/>
</linearGradient>
<linearGradient id="paint1_linear_2_519" x1="721.21" y1="751.053" x2="227.062" y2="62.1556" gradientUnits="userSpaceOnUse">
<stop stop-color="#C4D5FD"/>
<stop offset="1" stop-color="#CEDDFC"/>
</linearGradient>
<linearGradient id="paint2_linear_2_519" x1="721.21" y1="751.054" x2="227.061" y2="62.156" gradientUnits="userSpaceOnUse">
<stop stop-color="#C4D5FD"/>
<stop offset="1" stop-color="#CEDDFC"/>
</linearGradient>
<linearGradient id="paint3_linear_2_519" x1="721.209" y1="751.054" x2="227.06" y2="62.157" gradientUnits="userSpaceOnUse">
<stop stop-color="#C4D5FD"/>
<stop offset="1" stop-color="#CEDDFC"/>
</linearGradient>
<linearGradient id="paint4_linear_2_519" x1="721.21" y1="751.054" x2="227.061" y2="62.1562" gradientUnits="userSpaceOnUse">
<stop stop-color="#C4D5FD"/>
<stop offset="1" stop-color="#CEDDFC"/>
</linearGradient>
<linearGradient id="paint5_linear_2_519" x1="721.21" y1="751.057" x2="227.059" y2="62.1576" gradientUnits="userSpaceOnUse">
<stop stop-color="#C4D5FD"/>
<stop offset="1" stop-color="#CEDDFC"/>
</linearGradient>
<linearGradient id="paint6_linear_2_519" x1="721.21" y1="751.048" x2="227.067" y2="62.1517" gradientUnits="userSpaceOnUse">
<stop stop-color="#C4D5FD"/>
<stop offset="1" stop-color="#CEDDFC"/>
</linearGradient>
<linearGradient id="paint7_linear_2_519" x1="721.21" y1="751.056" x2="227.06" y2="62.1568" gradientUnits="userSpaceOnUse">
<stop stop-color="#C4D5FD"/>
<stop offset="1" stop-color="#CEDDFC"/>
</linearGradient>
<linearGradient id="paint8_linear_2_519" x1="412.975" y1="58.4507" x2="196.912" y2="262.147" gradientUnits="userSpaceOnUse">
<stop stop-color="#09005D"/>
<stop offset="1" stop-color="#1A0F91"/>
</linearGradient>
<linearGradient id="paint9_linear_2_519" x1="3055.79" y1="-1444.35" x2="2961.23" y2="-1377.88" gradientUnits="userSpaceOnUse">
<stop stop-color="#FF928E"/>
<stop offset="1" stop-color="#FE7062"/>
</linearGradient>
<linearGradient id="paint10_linear_2_519" x1="3066.99" y1="-1428.43" x2="2972.42" y2="-1361.96" gradientUnits="userSpaceOnUse">
<stop stop-color="#FF928E"/>
<stop offset="1" stop-color="#FE7062"/>
</linearGradient>
<linearGradient id="paint11_linear_2_519" x1="3077.29" y1="-1413.76" x2="2982.73" y2="-1347.29" gradientUnits="userSpaceOnUse">
<stop stop-color="#FF928E"/>
<stop offset="1" stop-color="#FE7062"/>
</linearGradient>
<linearGradient id="paint12_linear_2_519" x1="3087.85" y1="-1398.78" x2="2993.28" y2="-1332.31" gradientUnits="userSpaceOnUse">
<stop stop-color="#FF928E"/>
<stop offset="1" stop-color="#FE7062"/>
</linearGradient>
<linearGradient id="paint13_linear_2_519" x1="374.564" y1="17.1619" x2="292.436" y2="50.6381" gradientUnits="userSpaceOnUse">
<stop stop-color="#09005D"/>
<stop offset="1" stop-color="#1A0F91"/>
</linearGradient>
<linearGradient id="paint14_linear_2_519" x1="373.776" y1="13.5926" x2="311.066" y2="72.8013" gradientUnits="userSpaceOnUse">
<stop stop-color="#09005D"/>
<stop offset="1" stop-color="#1A0F91"/>
</linearGradient>
<linearGradient id="paint15_linear_2_519" x1="357.785" y1="604.495" x2="570.797" y2="367.739" gradientUnits="userSpaceOnUse">
<stop stop-color="#00875F"/>
<stop offset="1" stop-color="#00875F"/>
</linearGradient>
<linearGradient id="paint16_linear_2_519" x1="635.411" y1="291.171" x2="414.3" y2="688.074" gradientUnits="userSpaceOnUse">
<stop stop-color="#00875F"/>
<stop offset="1" stop-color="#00875F"/>
</linearGradient>
<linearGradient id="paint17_linear_2_519" x1="108.711" y1="580.239" x2="228.463" y2="462.768" gradientUnits="userSpaceOnUse">
<stop stop-color="#00875F"/>
<stop offset="1" stop-color="#00875F"/>
</linearGradient>
<linearGradient id="paint18_linear_2_519" x1="246.347" y1="417.562" x2="51.0652" y2="752.333" gradientUnits="userSpaceOnUse">
<stop stop-color="#00875F"/>
<stop offset="1" stop-color="#00875F"/>
</linearGradient>
<linearGradient id="paint19_linear_2_519" x1="538.51" y1="278.3" x2="522.292" y2="278.3" gradientUnits="userSpaceOnUse">
<stop stop-color="#4F52FF"/>
<stop offset="0.865992" stop-color="#4244E6"/>
<stop offset="1" stop-color="#4042E2"/>
</linearGradient>
<linearGradient id="paint20_linear_2_519" x1="497.64" y1="260.707" x2="551.909" y2="308.541" gradientUnits="userSpaceOnUse">
<stop stop-color="#09005D"/>
<stop offset="1" stop-color="#1A0F91"/>
</linearGradient>
<linearGradient id="paint21_linear_2_519" x1="533.187" y1="261.345" x2="530.611" y2="286.586" gradientUnits="userSpaceOnUse">
<stop stop-color="#FEBBBA"/>
<stop offset="1" stop-color="#FF928E"/>
</linearGradient>
<linearGradient id="paint22_linear_2_519" x1="573.82" y1="285.062" x2="573.82" y2="295.399" gradientUnits="userSpaceOnUse">
<stop stop-color="#09005D"/>
<stop offset="1" stop-color="#1A0F91"/>
</linearGradient>
<linearGradient id="paint23_linear_2_519" x1="562.36" y1="278.506" x2="585.185" y2="278.506" gradientUnits="userSpaceOnUse">
<stop stop-color="#4F52FF"/>
<stop offset="0.865992" stop-color="#4244E6"/>
<stop offset="1" stop-color="#4042E2"/>
</linearGradient>
<linearGradient id="paint24_linear_2_519" x1="567.297" y1="264.566" x2="564.887" y2="288.178" gradientUnits="userSpaceOnUse">
<stop stop-color="#FEBBBA"/>
<stop offset="1" stop-color="#FF928E"/>
</linearGradient>
<linearGradient id="paint25_linear_2_519" x1="548.599" y1="263.813" x2="551.483" y2="162.37" gradientUnits="userSpaceOnUse">
<stop stop-color="#09005D"/>
<stop offset="1" stop-color="#1A0F91"/>
</linearGradient>
<linearGradient id="paint26_linear_2_519" x1="544.9" y1="104.011" x2="542.111" y2="225.42" gradientUnits="userSpaceOnUse">
<stop stop-color="#00875F"/>
<stop offset="0.865992" stop-color="#4244E6"/>
<stop offset="1" stop-color="#4042E2"/>
</linearGradient>
<linearGradient id="paint27_linear_2_519" x1="546.664" y1="126.04" x2="541.895" y2="96.48" gradientUnits="userSpaceOnUse">
<stop stop-color="#FEBBBA"/>
<stop offset="1" stop-color="#FF928E"/>
</linearGradient>
<linearGradient id="paint28_linear_2_519" x1="509.213" y1="103.192" x2="506.424" y2="224.602" gradientUnits="userSpaceOnUse">
<stop stop-color="#00875F"/>
<stop offset="0.865992" stop-color="#4244E6"/>
<stop offset="1" stop-color="#4042E2"/>
</linearGradient>
<linearGradient id="paint29_linear_2_519" x1="504.678" y1="63.3366" x2="498.055" y2="87.7642" gradientUnits="userSpaceOnUse">
<stop stop-color="#FEBBBA"/>
<stop offset="1" stop-color="#FF928E"/>
</linearGradient>
<linearGradient id="paint30_linear_2_519" x1="577.894" y1="105.277" x2="580.683" y2="226.687" gradientUnits="userSpaceOnUse">
<stop stop-color="#00875F"/>
<stop offset="0.865992" stop-color="#4244E6"/>
<stop offset="1" stop-color="#4042E2"/>
</linearGradient>
<linearGradient id="paint31_linear_2_519" x1="582.429" y1="65.4244" x2="589.052" y2="89.8521" gradientUnits="userSpaceOnUse">
<stop stop-color="#FEBBBA"/>
<stop offset="1" stop-color="#FF928E"/>
</linearGradient>
<linearGradient id="paint32_linear_2_519" x1="552.837" y1="95.4692" x2="533.389" y2="82.1544" gradientUnits="userSpaceOnUse">
<stop stop-color="#FEBBBA"/>
<stop offset="1" stop-color="#FF928E"/>
</linearGradient>
<linearGradient id="paint33_linear_2_519" x1="520.999" y1="72.2316" x2="545.451" y2="93.911" gradientUnits="userSpaceOnUse">
<stop stop-color="#09005D"/>
<stop offset="1" stop-color="#1A0F91"/>
</linearGradient>
<linearGradient id="paint34_linear_2_519" x1="547.368" y1="99.6864" x2="529.871" y2="87.7069" gradientUnits="userSpaceOnUse">
<stop stop-color="#FEBBBA"/>
<stop offset="1" stop-color="#FF928E"/>
</linearGradient>
<linearGradient id="paint35_linear_2_519" x1="181.225" y1="588.373" x2="378.664" y2="453.395" gradientUnits="userSpaceOnUse">
<stop stop-color="#00875F"/>
<stop offset="1" stop-color="#00875F"/>
</linearGradient>
<linearGradient id="paint36_linear_2_519" x1="426.174" y1="390.566" x2="253.732" y2="655.774" gradientUnits="userSpaceOnUse">
<stop stop-color="#00875F"/>
<stop offset="1" stop-color="#00875F"/>
</linearGradient>
<linearGradient id="paint37_linear_2_519" x1="359.408" y1="341.104" x2="298.565" y2="303.463" gradientUnits="userSpaceOnUse">
<stop stop-color="#00875F"/>
<stop offset="0.865992" stop-color="#4244E6"/>
<stop offset="1" stop-color="#4042E2"/>
</linearGradient>
<linearGradient id="paint38_linear_2_519" x1="393.039" y1="334.563" x2="317.312" y2="375.742" gradientUnits="userSpaceOnUse">
<stop stop-color="#FEBBBA"/>
<stop offset="1" stop-color="#FF928E"/>
</linearGradient>
<linearGradient id="paint39_linear_2_519" x1="393.418" y1="335.26" x2="317.691" y2="376.439" gradientUnits="userSpaceOnUse">
<stop stop-color="#FEBBBA"/>
<stop offset="1" stop-color="#FF928E"/>
</linearGradient>
<linearGradient id="paint40_linear_2_519" x1="372.167" y1="365.338" x2="384.908" y2="338.672" gradientUnits="userSpaceOnUse">
<stop stop-color="#FEBBBA"/>
<stop offset="1" stop-color="#FF928E"/>
</linearGradient>
<linearGradient id="paint41_linear_2_519" x1="182.325" y1="434.742" x2="204.017" y2="440.705" gradientUnits="userSpaceOnUse">
<stop stop-color="#4F52FF"/>
<stop offset="0.865992" stop-color="#4244E6"/>
<stop offset="1" stop-color="#4042E2"/>
</linearGradient>
<linearGradient id="paint42_linear_2_519" x1="231.838" y1="445.972" x2="245.078" y2="445.972" gradientUnits="userSpaceOnUse">
<stop stop-color="#09005D"/>
<stop offset="1" stop-color="#1A0F91"/>
</linearGradient>
<linearGradient id="paint43_linear_2_519" x1="238.447" y1="434.046" x2="248.183" y2="434.046" gradientUnits="userSpaceOnUse">
<stop stop-color="#FEBBBA"/>
<stop offset="1" stop-color="#FF928E"/>
</linearGradient>
<linearGradient id="paint44_linear_2_519" x1="380.648" y1="406.873" x2="399.299" y2="406.873" gradientUnits="userSpaceOnUse">
<stop stop-color="#4F52FF"/>
<stop offset="0.865992" stop-color="#4244E6"/>
<stop offset="1" stop-color="#4042E2"/>
</linearGradient>
<linearGradient id="paint45_linear_2_519" x1="376" y1="406.719" x2="398.489" y2="406.719" gradientUnits="userSpaceOnUse">
<stop stop-color="#09005D"/>
<stop offset="1" stop-color="#1A0F91"/>
</linearGradient>
<linearGradient id="paint46_linear_2_519" x1="370.037" y1="406.139" x2="380.734" y2="406.139" gradientUnits="userSpaceOnUse">
<stop stop-color="#FEBBBA"/>
<stop offset="1" stop-color="#FF928E"/>
</linearGradient>
<linearGradient id="paint47_linear_2_519" x1="303.281" y1="378.049" x2="238.701" y2="444.283" gradientUnits="userSpaceOnUse">
<stop stop-color="#09005D"/>
<stop offset="1" stop-color="#1A0F91"/>
</linearGradient>
<linearGradient id="paint48_linear_2_519" x1="399.965" y1="389.207" x2="310.712" y2="385.129" gradientUnits="userSpaceOnUse">
<stop stop-color="#09005D"/>
<stop offset="1" stop-color="#1A0F91"/>
</linearGradient>
<linearGradient id="paint49_linear_2_519" x1="317.676" y1="324.94" x2="268.238" y2="413.386" gradientUnits="userSpaceOnUse">
<stop stop-color="#00875F"/>
<stop offset="0.865992" stop-color="#4244E6"/>
<stop offset="1" stop-color="#4042E2"/>
</linearGradient>
<linearGradient id="paint50_linear_2_519" x1="294.416" y1="357.714" x2="254.903" y2="279.32" gradientUnits="userSpaceOnUse">
<stop stop-color="#FEBBBA"/>
<stop offset="1" stop-color="#FF928E"/>
</linearGradient>
<linearGradient id="paint51_linear_2_519" x1="301.856" y1="238.062" x2="307.421" y2="353.975" gradientUnits="userSpaceOnUse">
<stop stop-color="#CB236D"/>
<stop offset="1" stop-color="#4C246D"/>
</linearGradient>
<linearGradient id="paint52_linear_2_519" x1="324.315" y1="325.843" x2="328.334" y2="312.977" gradientUnits="userSpaceOnUse">
<stop stop-color="#FEBBBA"/>
<stop offset="1" stop-color="#FF928E"/>
</linearGradient>
<linearGradient id="paint53_linear_2_519" x1="339.778" y1="307.063" x2="322.084" y2="294.949" gradientUnits="userSpaceOnUse">
<stop stop-color="#FEBBBA"/>
<stop offset="1" stop-color="#FF928E"/>
</linearGradient>
<linearGradient id="paint54_linear_2_519" x1="310.811" y1="285.922" x2="333.058" y2="305.646" gradientUnits="userSpaceOnUse">
<stop stop-color="#09005D"/>
<stop offset="1" stop-color="#1A0F91"/>
</linearGradient>
<linearGradient id="paint55_linear_2_519" x1="334.804" y1="310.899" x2="318.885" y2="300" gradientUnits="userSpaceOnUse">
<stop stop-color="#FEBBBA"/>
<stop offset="1" stop-color="#FF928E"/>
</linearGradient>
<linearGradient id="paint56_linear_2_519" x1="173.94" y1="506.727" x2="135.603" y2="605.706" gradientUnits="userSpaceOnUse">
<stop stop-color="#09005D"/>
<stop offset="1" stop-color="#1A0F91"/>
</linearGradient>
<linearGradient id="paint57_linear_2_519" x1="114.707" y1="553.301" x2="130.06" y2="553.301" gradientUnits="userSpaceOnUse">
<stop stop-color="#FEBBBA"/>
<stop offset="1" stop-color="#FF928E"/>
</linearGradient>
<linearGradient id="paint58_linear_2_519" x1="78.2992" y1="448.716" x2="129.067" y2="448.716" gradientUnits="userSpaceOnUse">
<stop stop-color="#09005D"/>
<stop offset="1" stop-color="#1A0F91"/>
</linearGradient>
<linearGradient id="paint59_linear_2_519" x1="112.609" y1="482.973" x2="74.2722" y2="581.952" gradientUnits="userSpaceOnUse">
<stop stop-color="#09005D"/>
<stop offset="1" stop-color="#1A0F91"/>
</linearGradient>
<linearGradient id="paint60_linear_2_519" x1="59.3722" y1="552.6" x2="72.6286" y2="552.6" gradientUnits="userSpaceOnUse">
<stop stop-color="#FEBBBA"/>
<stop offset="1" stop-color="#FF928E"/>
</linearGradient>
<linearGradient id="paint61_linear_2_519" x1="45.0831" y1="447.237" x2="117.157" y2="447.237" gradientUnits="userSpaceOnUse">
<stop stop-color="#09005D"/>
<stop offset="1" stop-color="#1A0F91"/>
</linearGradient>
<linearGradient id="paint62_linear_2_519" x1="24.5881" y1="324.102" x2="246.491" y2="144.839" gradientUnits="userSpaceOnUse">
<stop stop-color="#00875F"/>
<stop offset="0.865992" stop-color="#4244E6"/>
<stop offset="1" stop-color="#4042E2"/>
</linearGradient>
<linearGradient id="paint63_linear_2_519" x1="167.855" y1="236.499" x2="262.118" y2="148.058" gradientUnits="userSpaceOnUse">
<stop stop-color="#FEBBBA"/>
<stop offset="1" stop-color="#FF928E"/>
</linearGradient>
<linearGradient id="paint64_linear_2_519" x1="235.199" y1="174.371" x2="266.687" y2="125.583" gradientUnits="userSpaceOnUse">
<stop stop-color="#FEBBBA"/>
<stop offset="1" stop-color="#FF928E"/>
</linearGradient>
<linearGradient id="paint65_linear_2_519" x1="252.938" y1="152.238" x2="316.445" y2="67.2983" gradientUnits="userSpaceOnUse">
<stop stop-color="#FEBBBA"/>
<stop offset="1" stop-color="#FF928E"/>
</linearGradient>
<linearGradient id="paint66_linear_2_519" x1="-7.2471" y1="284.693" x2="214.655" y2="105.431" gradientUnits="userSpaceOnUse">
<stop stop-color="#00875F"/>
<stop offset="0.865992" stop-color="#4244E6"/>
<stop offset="1" stop-color="#4042E2"/>
</linearGradient>
<linearGradient id="paint67_linear_2_519" x1="6.2452" y1="295.442" x2="105.511" y2="295.442" gradientUnits="userSpaceOnUse">
<stop stop-color="#FEBBBA"/>
<stop offset="1" stop-color="#FF928E"/>
</linearGradient>
<linearGradient id="paint68_linear_2_519" x1="215.379" y1="163.929" x2="189.58" y2="206.255" gradientUnits="userSpaceOnUse">
<stop stop-color="#09005D"/>
<stop offset="1" stop-color="#1A0F91"/>
</linearGradient>
<linearGradient id="paint69_linear_2_519" x1="218.032" y1="165.548" x2="192.233" y2="207.874" gradientUnits="userSpaceOnUse">
<stop stop-color="#09005D"/>
<stop offset="1" stop-color="#1A0F91"/>
</linearGradient>
<linearGradient id="paint70_linear_2_519" x1="98.1414" y1="286.17" x2="129.067" y2="286.17" gradientUnits="userSpaceOnUse">
<stop stop-color="#FEBBBA"/>
<stop offset="1" stop-color="#FF928E"/>
</linearGradient>
<linearGradient id="paint71_linear_2_519" x1="84.1176" y1="235.507" x2="106.509" y2="186.686" gradientUnits="userSpaceOnUse">
<stop stop-color="#FEBBBA"/>
<stop offset="1" stop-color="#FF928E"/>
</linearGradient>
<linearGradient id="paint72_linear_2_519" x1="715.61" y1="502.181" x2="778.204" y2="545.808" gradientUnits="userSpaceOnUse">
<stop stop-color="#FEBBBA"/>
<stop offset="1" stop-color="#FF928E"/>
</linearGradient>
<linearGradient id="paint73_linear_2_519" x1="65.055" y1="130.5" x2="115.738" y2="175.436" gradientUnits="userSpaceOnUse">
<stop stop-color="#09005D"/>
<stop offset="1" stop-color="#1A0F91"/>
</linearGradient>
<linearGradient id="paint74_linear_2_519" x1="708.047" y1="513.03" x2="770.641" y2="556.657" gradientUnits="userSpaceOnUse">
<stop stop-color="#FEBBBA"/>
<stop offset="1" stop-color="#FF928E"/>
</linearGradient>
<clipPath id="clip0_2_519">
<rect width="640" height="576" fill="white"/>
</clipPath>
</defs>
</svg>
