<svg width="338" height="69" viewBox="0 0 338 69" fill="none" xmlns="http://www.w3.org/2000/svg">
<path d="M12.015 56.4587L32.04 35.9878L52.065 56.4587" stroke="#00B37E" stroke-width="6" stroke-linecap="round" stroke-linejoin="round"/>
<path d="M12.015 35.9877L32.04 15.5168L52.065 35.9877" stroke="#00B37E" stroke-width="6" stroke-linecap="round" stroke-linejoin="round"/>
<path d="M72.0244 40.625V56.2656H69.3496V40.625H72.0244ZM76.9336 40.625V42.7734H64.4834V40.625H76.9336ZM76.7402 50.583V50.3359C76.7402 49.498 76.862 48.721 77.1055 48.0049C77.349 47.2816 77.6999 46.6549 78.1582 46.125C78.6237 45.5879 79.1895 45.1725 79.8555 44.8789C80.5286 44.5781 81.2878 44.4277 82.1328 44.4277C82.985 44.4277 83.7441 44.5781 84.4102 44.8789C85.0833 45.1725 85.6527 45.5879 86.1182 46.125C86.5837 46.6549 86.9382 47.2816 87.1816 48.0049C87.4251 48.721 87.5469 49.498 87.5469 50.3359V50.583C87.5469 51.4209 87.4251 52.1979 87.1816 52.9141C86.9382 53.6302 86.5837 54.2568 86.1182 54.7939C85.6527 55.3239 85.0869 55.7393 84.4209 56.04C83.7549 56.3337 82.9993 56.4805 82.1543 56.4805C81.3021 56.4805 80.5394 56.3337 79.8662 56.04C79.2002 55.7393 78.6344 55.3239 78.1689 54.7939C77.7035 54.2568 77.349 53.6302 77.1055 52.9141C76.862 52.1979 76.7402 51.4209 76.7402 50.583ZM79.3291 50.3359V50.583C79.3291 51.1058 79.3828 51.5999 79.4902 52.0654C79.5977 52.5309 79.766 52.9391 79.9951 53.29C80.2243 53.641 80.5179 53.9167 80.876 54.1172C81.234 54.3177 81.6602 54.418 82.1543 54.418C82.6341 54.418 83.0495 54.3177 83.4004 54.1172C83.7585 53.9167 84.0521 53.641 84.2812 53.29C84.5104 52.9391 84.6787 52.5309 84.7861 52.0654C84.9007 51.5999 84.958 51.1058 84.958 50.583V50.3359C84.958 49.8203 84.9007 49.3333 84.7861 48.875C84.6787 48.4095 84.5068 47.9977 84.2705 47.6396C84.0413 47.2816 83.7477 47.0023 83.3896 46.8018C83.0387 46.5941 82.6198 46.4902 82.1328 46.4902C81.6458 46.4902 81.2233 46.5941 80.8652 46.8018C80.5143 47.0023 80.2243 47.2816 79.9951 47.6396C79.766 47.9977 79.5977 48.4095 79.4902 48.875C79.3828 49.3333 79.3291 49.8203 79.3291 50.3359ZM92.3164 46.8555V56.2656H89.7275V44.6426H92.1982L92.3164 46.8555ZM95.8721 44.5674L95.8506 46.9736C95.693 46.945 95.5212 46.9235 95.335 46.9092C95.1559 46.8949 94.9769 46.8877 94.7979 46.8877C94.3538 46.8877 93.9635 46.9521 93.627 47.0811C93.2904 47.2028 93.0075 47.3818 92.7783 47.6182C92.5563 47.8473 92.3844 48.1266 92.2627 48.4561C92.141 48.7855 92.0693 49.1543 92.0479 49.5625L91.457 49.6055C91.457 48.875 91.5286 48.1982 91.6719 47.5752C91.8151 46.9521 92.0299 46.4043 92.3164 45.9316C92.61 45.459 92.9753 45.0902 93.4121 44.8252C93.8561 44.5602 94.3682 44.4277 94.9482 44.4277C95.1058 44.4277 95.2741 44.4421 95.4531 44.4707C95.6393 44.4993 95.779 44.5316 95.8721 44.5674ZM100.062 47.124V56.2656H97.4727V44.6426H99.9111L100.062 47.124ZM99.5996 50.0244L98.7617 50.0137C98.7689 49.1901 98.8835 48.4346 99.1055 47.7471C99.3346 47.0596 99.6497 46.4688 100.051 45.9746C100.459 45.4805 100.946 45.1009 101.512 44.8359C102.077 44.5638 102.708 44.4277 103.402 44.4277C103.961 44.4277 104.466 44.5065 104.917 44.6641C105.375 44.8145 105.766 45.0615 106.088 45.4053C106.417 45.749 106.668 46.1966 106.84 46.748C107.012 47.2923 107.098 47.9619 107.098 48.7568V56.2656H104.498V48.7461C104.498 48.1875 104.416 47.7471 104.251 47.4248C104.093 47.0954 103.861 46.8626 103.553 46.7266C103.252 46.5833 102.876 46.5117 102.425 46.5117C101.981 46.5117 101.583 46.6048 101.232 46.791C100.882 46.9772 100.584 47.2314 100.341 47.5537C100.104 47.876 99.9219 48.2484 99.793 48.6709C99.6641 49.0934 99.5996 49.5446 99.5996 50.0244ZM114.864 56.4805C114.005 56.4805 113.228 56.3408 112.533 56.0615C111.846 55.7751 111.258 55.3776 110.771 54.8691C110.292 54.3607 109.923 53.7627 109.665 53.0752C109.407 52.3877 109.278 51.6465 109.278 50.8516V50.4219C109.278 49.5124 109.411 48.6888 109.676 47.9512C109.941 47.2135 110.31 46.5833 110.782 46.0605C111.255 45.5306 111.813 45.126 112.458 44.8467C113.103 44.5674 113.801 44.4277 114.553 44.4277C115.383 44.4277 116.11 44.5674 116.733 44.8467C117.356 45.126 117.872 45.5199 118.28 46.0283C118.696 46.5296 119.004 47.1276 119.204 47.8223C119.412 48.5169 119.516 49.2832 119.516 50.1211V51.2275H110.535V49.3691H116.959V49.165C116.945 48.6995 116.852 48.2627 116.68 47.8545C116.515 47.4463 116.261 47.1169 115.917 46.8662C115.573 46.6156 115.115 46.4902 114.542 46.4902C114.112 46.4902 113.729 46.5833 113.393 46.7695C113.063 46.9486 112.787 47.21 112.565 47.5537C112.343 47.8975 112.172 48.3128 112.05 48.7998C111.935 49.2796 111.878 49.8203 111.878 50.4219V50.8516C111.878 51.36 111.946 51.8327 112.082 52.2695C112.225 52.6992 112.433 53.0752 112.705 53.3975C112.977 53.7197 113.307 53.974 113.693 54.1602C114.08 54.3392 114.521 54.4287 115.015 54.4287C115.638 54.4287 116.193 54.3034 116.68 54.0527C117.167 53.8021 117.589 53.4476 117.947 52.9893L119.312 54.3105C119.061 54.6758 118.735 55.0267 118.334 55.3633C117.933 55.6927 117.442 55.9613 116.862 56.1689C116.289 56.3766 115.623 56.4805 114.864 56.4805ZM126.745 48.5527V50.6152H121.062V48.5527H126.745ZM135.532 53.1182C135.532 52.8604 135.468 52.6276 135.339 52.4199C135.21 52.2051 134.963 52.0117 134.598 51.8398C134.24 51.668 133.71 51.5104 133.008 51.3672C132.392 51.2311 131.826 51.07 131.311 50.8838C130.802 50.6904 130.365 50.4577 130 50.1855C129.635 49.9134 129.352 49.5911 129.151 49.2188C128.951 48.8464 128.851 48.4167 128.851 47.9297C128.851 47.457 128.954 47.0094 129.162 46.5869C129.37 46.1644 129.667 45.792 130.054 45.4697C130.44 45.1475 130.91 44.8932 131.461 44.707C132.02 44.5208 132.643 44.4277 133.33 44.4277C134.304 44.4277 135.138 44.5924 135.833 44.9219C136.535 45.2441 137.072 45.6846 137.444 46.2432C137.817 46.7946 138.003 47.4176 138.003 48.1123H135.414C135.414 47.8044 135.335 47.5179 135.178 47.2529C135.027 46.9808 134.798 46.7624 134.49 46.5977C134.182 46.4258 133.796 46.3398 133.33 46.3398C132.886 46.3398 132.517 46.4115 132.224 46.5547C131.937 46.6908 131.722 46.8698 131.579 47.0918C131.443 47.3138 131.375 47.5573 131.375 47.8223C131.375 48.0156 131.411 48.1911 131.482 48.3486C131.561 48.499 131.69 48.6387 131.869 48.7676C132.048 48.8893 132.292 49.0039 132.6 49.1113C132.915 49.2188 133.309 49.3226 133.781 49.4229C134.669 49.609 135.432 49.849 136.069 50.1426C136.714 50.429 137.208 50.8014 137.552 51.2598C137.896 51.7109 138.067 52.2839 138.067 52.9785C138.067 53.4941 137.956 53.9668 137.734 54.3965C137.52 54.819 137.204 55.1878 136.789 55.5029C136.374 55.8109 135.876 56.0508 135.296 56.2227C134.723 56.3945 134.078 56.4805 133.362 56.4805C132.31 56.4805 131.418 56.2943 130.688 55.9219C129.957 55.5423 129.402 55.0589 129.022 54.4717C128.65 53.8773 128.464 53.2614 128.464 52.624H130.967C130.995 53.1038 131.128 53.487 131.364 53.7734C131.608 54.0527 131.909 54.2568 132.267 54.3857C132.632 54.5075 133.008 54.5684 133.395 54.5684C133.86 54.5684 134.25 54.5075 134.565 54.3857C134.881 54.2568 135.12 54.085 135.285 53.8701C135.45 53.6481 135.532 53.3975 135.532 53.1182ZM145.458 56.4805C144.599 56.4805 143.822 56.3408 143.127 56.0615C142.439 55.7751 141.852 55.3776 141.365 54.8691C140.885 54.3607 140.517 53.7627 140.259 53.0752C140.001 52.3877 139.872 51.6465 139.872 50.8516V50.4219C139.872 49.5124 140.005 48.6888 140.27 47.9512C140.535 47.2135 140.903 46.5833 141.376 46.0605C141.849 45.5306 142.407 45.126 143.052 44.8467C143.696 44.5674 144.395 44.4277 145.146 44.4277C145.977 44.4277 146.704 44.5674 147.327 44.8467C147.95 45.126 148.466 45.5199 148.874 46.0283C149.289 46.5296 149.597 47.1276 149.798 47.8223C150.006 48.5169 150.109 49.2832 150.109 50.1211V51.2275H141.129V49.3691H147.553V49.165C147.538 48.6995 147.445 48.2627 147.273 47.8545C147.109 47.4463 146.854 47.1169 146.511 46.8662C146.167 46.6156 145.709 46.4902 145.136 46.4902C144.706 46.4902 144.323 46.5833 143.986 46.7695C143.657 46.9486 143.381 47.21 143.159 47.5537C142.937 47.8975 142.765 48.3128 142.644 48.7998C142.529 49.2796 142.472 49.8203 142.472 50.4219V50.8516C142.472 51.36 142.54 51.8327 142.676 52.2695C142.819 52.6992 143.027 53.0752 143.299 53.3975C143.571 53.7197 143.9 53.974 144.287 54.1602C144.674 54.3392 145.114 54.4287 145.608 54.4287C146.231 54.4287 146.786 54.3034 147.273 54.0527C147.76 53.8021 148.183 53.4476 148.541 52.9893L149.905 54.3105C149.655 54.6758 149.329 55.0267 148.928 55.3633C148.527 55.6927 148.036 55.9613 147.456 56.1689C146.883 56.3766 146.217 56.4805 145.458 56.4805ZM164.128 53.1182C164.128 52.8604 164.063 52.6276 163.935 52.4199C163.806 52.2051 163.559 52.0117 163.193 51.8398C162.835 51.668 162.305 51.5104 161.604 51.3672C160.988 51.2311 160.422 51.07 159.906 50.8838C159.398 50.6904 158.961 50.4577 158.596 50.1855C158.23 49.9134 157.948 49.5911 157.747 49.2188C157.547 48.8464 157.446 48.4167 157.446 47.9297C157.446 47.457 157.55 47.0094 157.758 46.5869C157.965 46.1644 158.263 45.792 158.649 45.4697C159.036 45.1475 159.505 44.8932 160.057 44.707C160.615 44.5208 161.238 44.4277 161.926 44.4277C162.9 44.4277 163.734 44.5924 164.429 44.9219C165.131 45.2441 165.668 45.6846 166.04 46.2432C166.412 46.7946 166.599 47.4176 166.599 48.1123H164.01C164.01 47.8044 163.931 47.5179 163.773 47.2529C163.623 46.9808 163.394 46.7624 163.086 46.5977C162.778 46.4258 162.391 46.3398 161.926 46.3398C161.482 46.3398 161.113 46.4115 160.819 46.5547C160.533 46.6908 160.318 46.8698 160.175 47.0918C160.039 47.3138 159.971 47.5573 159.971 47.8223C159.971 48.0156 160.007 48.1911 160.078 48.3486C160.157 48.499 160.286 48.6387 160.465 48.7676C160.644 48.8893 160.887 49.0039 161.195 49.1113C161.51 49.2188 161.904 49.3226 162.377 49.4229C163.265 49.609 164.028 49.849 164.665 50.1426C165.31 50.429 165.804 50.8014 166.147 51.2598C166.491 51.7109 166.663 52.2839 166.663 52.9785C166.663 53.4941 166.552 53.9668 166.33 54.3965C166.115 54.819 165.8 55.1878 165.385 55.5029C164.969 55.8109 164.472 56.0508 163.892 56.2227C163.319 56.3945 162.674 56.4805 161.958 56.4805C160.905 56.4805 160.014 56.2943 159.283 55.9219C158.553 55.5423 157.998 55.0589 157.618 54.4717C157.246 53.8773 157.06 53.2614 157.06 52.624H159.562C159.591 53.1038 159.724 53.487 159.96 53.7734C160.203 54.0527 160.504 54.2568 160.862 54.3857C161.228 54.5075 161.604 54.5684 161.99 54.5684C162.456 54.5684 162.846 54.5075 163.161 54.3857C163.476 54.2568 163.716 54.085 163.881 53.8701C164.046 53.6481 164.128 53.3975 164.128 53.1182ZM175.923 53.5264V44.6426H178.522V56.2656H176.073L175.923 53.5264ZM176.288 51.1094L177.158 51.0879C177.158 51.8685 177.072 52.5882 176.9 53.2471C176.729 53.8988 176.464 54.4681 176.105 54.9551C175.747 55.4349 175.289 55.8109 174.73 56.083C174.172 56.348 173.502 56.4805 172.722 56.4805C172.156 56.4805 171.637 56.3981 171.164 56.2334C170.691 56.0687 170.283 55.8145 169.939 55.4707C169.603 55.127 169.341 54.6794 169.155 54.1279C168.969 53.5765 168.876 52.9176 168.876 52.1514V44.6426H171.465V52.1729C171.465 52.5954 171.515 52.9499 171.615 53.2363C171.715 53.5156 171.852 53.7412 172.023 53.9131C172.195 54.085 172.396 54.2067 172.625 54.2783C172.854 54.3499 173.098 54.3857 173.355 54.3857C174.093 54.3857 174.673 54.2425 175.096 53.9561C175.525 53.6624 175.83 53.2686 176.009 52.7744C176.195 52.2803 176.288 51.7253 176.288 51.1094ZM187.729 53.9346V48.3916C187.729 47.9762 187.653 47.6182 187.503 47.3174C187.353 47.0166 187.123 46.7839 186.815 46.6191C186.515 46.4544 186.135 46.3721 185.677 46.3721C185.254 46.3721 184.889 46.4437 184.581 46.5869C184.273 46.7301 184.033 46.9235 183.861 47.167C183.689 47.4105 183.604 47.6862 183.604 47.9941H181.025C181.025 47.5358 181.136 47.0918 181.358 46.6621C181.58 46.2324 181.903 45.8493 182.325 45.5127C182.748 45.1761 183.253 44.9111 183.84 44.7178C184.427 44.5244 185.086 44.4277 185.816 44.4277C186.69 44.4277 187.464 44.5745 188.137 44.8682C188.817 45.1618 189.351 45.6058 189.737 46.2002C190.131 46.7874 190.328 47.5251 190.328 48.4131V53.5801C190.328 54.11 190.364 54.5863 190.436 55.0088C190.514 55.4242 190.625 55.7858 190.769 56.0938V56.2656H188.115C187.993 55.9863 187.897 55.6318 187.825 55.2021C187.761 54.7653 187.729 54.3428 187.729 53.9346ZM188.104 49.1973L188.126 50.7979H186.268C185.788 50.7979 185.365 50.8444 185 50.9375C184.635 51.0234 184.33 51.1523 184.087 51.3242C183.843 51.4961 183.661 51.7038 183.539 51.9473C183.417 52.1908 183.356 52.4665 183.356 52.7744C183.356 53.0824 183.428 53.3652 183.571 53.623C183.715 53.8737 183.922 54.0706 184.194 54.2139C184.474 54.3571 184.81 54.4287 185.204 54.4287C185.734 54.4287 186.196 54.3213 186.59 54.1064C186.991 53.8844 187.306 53.6159 187.535 53.3008C187.764 52.9785 187.886 52.6742 187.9 52.3877L188.738 53.5371C188.652 53.8307 188.506 54.1458 188.298 54.4824C188.09 54.819 187.818 55.1413 187.481 55.4492C187.152 55.75 186.755 55.9971 186.289 56.1904C185.831 56.3838 185.301 56.4805 184.699 56.4805C183.94 56.4805 183.263 56.3301 182.669 56.0293C182.075 55.7214 181.609 55.3096 181.272 54.7939C180.936 54.2712 180.768 53.6803 180.768 53.0215C180.768 52.4056 180.882 51.8613 181.111 51.3887C181.348 50.9089 181.691 50.5078 182.143 50.1855C182.601 49.8633 183.16 49.6198 183.818 49.4551C184.477 49.2832 185.229 49.1973 186.074 49.1973H188.104ZM201.103 47.0059V56.2656H198.514V44.6426H200.952L201.103 47.0059ZM200.684 50.0244L199.803 50.0137C199.803 49.2116 199.903 48.4704 200.104 47.79C200.304 47.1097 200.598 46.5189 200.984 46.0176C201.371 45.5091 201.851 45.1188 202.424 44.8467C203.004 44.5674 203.674 44.4277 204.433 44.4277C204.963 44.4277 205.446 44.5065 205.883 44.6641C206.327 44.8145 206.71 45.0544 207.032 45.3838C207.362 45.7132 207.612 46.1357 207.784 46.6514C207.963 47.167 208.053 47.79 208.053 48.5205V56.2656H205.464V48.7461C205.464 48.1803 205.378 47.7363 205.206 47.4141C205.041 47.0918 204.801 46.8626 204.486 46.7266C204.178 46.5833 203.81 46.5117 203.38 46.5117C202.893 46.5117 202.478 46.6048 202.134 46.791C201.797 46.9772 201.521 47.2314 201.307 47.5537C201.092 47.876 200.934 48.2484 200.834 48.6709C200.734 49.0934 200.684 49.5446 200.684 50.0244ZM207.892 49.3369L206.678 49.6055C206.678 48.9036 206.774 48.2412 206.968 47.6182C207.168 46.988 207.458 46.4365 207.838 45.9639C208.225 45.484 208.701 45.1081 209.267 44.8359C209.832 44.5638 210.48 44.4277 211.211 44.4277C211.805 44.4277 212.335 44.5101 212.801 44.6748C213.273 44.8324 213.674 45.083 214.004 45.4268C214.333 45.7705 214.584 46.2181 214.756 46.7695C214.928 47.3138 215.014 47.9727 215.014 48.7461V56.2656H212.414V48.7354C212.414 48.1481 212.328 47.6934 212.156 47.3711C211.992 47.0488 211.755 46.8268 211.447 46.7051C211.139 46.5762 210.771 46.5117 210.341 46.5117C209.94 46.5117 209.585 46.5869 209.277 46.7373C208.977 46.8805 208.722 47.0846 208.515 47.3496C208.307 47.6074 208.149 47.9046 208.042 48.2412C207.942 48.5778 207.892 48.943 207.892 49.3369ZM222.802 56.4805C221.942 56.4805 221.165 56.3408 220.471 56.0615C219.783 55.7751 219.196 55.3776 218.709 54.8691C218.229 54.3607 217.86 53.7627 217.603 53.0752C217.345 52.3877 217.216 51.6465 217.216 50.8516V50.4219C217.216 49.5124 217.348 48.6888 217.613 47.9512C217.878 47.2135 218.247 46.5833 218.72 46.0605C219.192 45.5306 219.751 45.126 220.396 44.8467C221.04 44.5674 221.738 44.4277 222.49 44.4277C223.321 44.4277 224.048 44.5674 224.671 44.8467C225.294 45.126 225.81 45.5199 226.218 46.0283C226.633 46.5296 226.941 47.1276 227.142 47.8223C227.349 48.5169 227.453 49.2832 227.453 50.1211V51.2275H218.473V49.3691H224.896V49.165C224.882 48.6995 224.789 48.2627 224.617 47.8545C224.452 47.4463 224.198 47.1169 223.854 46.8662C223.511 46.6156 223.052 46.4902 222.479 46.4902C222.05 46.4902 221.667 46.5833 221.33 46.7695C221.001 46.9486 220.725 47.21 220.503 47.5537C220.281 47.8975 220.109 48.3128 219.987 48.7998C219.873 49.2796 219.815 49.8203 219.815 50.4219V50.8516C219.815 51.36 219.883 51.8327 220.02 52.2695C220.163 52.6992 220.37 53.0752 220.643 53.3975C220.915 53.7197 221.244 53.974 221.631 54.1602C222.018 54.3392 222.458 54.4287 222.952 54.4287C223.575 54.4287 224.13 54.3034 224.617 54.0527C225.104 53.8021 225.527 53.4476 225.885 52.9893L227.249 54.3105C226.998 54.6758 226.673 55.0267 226.271 55.3633C225.87 55.6927 225.38 55.9613 224.8 56.1689C224.227 56.3766 223.561 56.4805 222.802 56.4805ZM232.244 39.7656V56.2656H229.645V39.7656H232.244ZM237.637 39.7656V56.2656H235.059V39.7656H237.637ZM237.186 50.0244L236.348 50.0137C236.355 49.2116 236.466 48.4704 236.681 47.79C236.903 47.1097 237.211 46.5189 237.604 46.0176C238.006 45.5091 238.485 45.1188 239.044 44.8467C239.603 44.5674 240.222 44.4277 240.902 44.4277C241.475 44.4277 241.991 44.5065 242.449 44.6641C242.915 44.8216 243.316 45.0758 243.652 45.4268C243.989 45.7705 244.243 46.2217 244.415 46.7803C244.594 47.3317 244.684 48.0049 244.684 48.7998V56.2656H242.084V48.7783C242.084 48.2197 242.002 47.7757 241.837 47.4463C241.679 47.1169 241.447 46.8805 241.139 46.7373C240.831 46.5869 240.455 46.5117 240.011 46.5117C239.545 46.5117 239.133 46.6048 238.775 46.791C238.424 46.9772 238.131 47.2314 237.895 47.5537C237.658 47.876 237.479 48.2484 237.357 48.6709C237.243 49.0934 237.186 49.5446 237.186 50.0244ZM246.811 50.583V50.3359C246.811 49.498 246.932 48.721 247.176 48.0049C247.419 47.2816 247.77 46.6549 248.229 46.125C248.694 45.5879 249.26 45.1725 249.926 44.8789C250.599 44.5781 251.358 44.4277 252.203 44.4277C253.055 44.4277 253.814 44.5781 254.48 44.8789C255.154 45.1725 255.723 45.5879 256.188 46.125C256.654 46.6549 257.008 47.2816 257.252 48.0049C257.495 48.721 257.617 49.498 257.617 50.3359V50.583C257.617 51.4209 257.495 52.1979 257.252 52.9141C257.008 53.6302 256.654 54.2568 256.188 54.7939C255.723 55.3239 255.157 55.7393 254.491 56.04C253.825 56.3337 253.07 56.4805 252.225 56.4805C251.372 56.4805 250.61 56.3337 249.937 56.04C249.271 55.7393 248.705 55.3239 248.239 54.7939C247.774 54.2568 247.419 53.6302 247.176 52.9141C246.932 52.1979 246.811 51.4209 246.811 50.583ZM249.399 50.3359V50.583C249.399 51.1058 249.453 51.5999 249.561 52.0654C249.668 52.5309 249.836 52.9391 250.065 53.29C250.295 53.641 250.588 53.9167 250.946 54.1172C251.304 54.3177 251.73 54.418 252.225 54.418C252.704 54.418 253.12 54.3177 253.471 54.1172C253.829 53.9167 254.122 53.641 254.352 53.29C254.581 52.9391 254.749 52.5309 254.856 52.0654C254.971 51.5999 255.028 51.1058 255.028 50.583V50.3359C255.028 49.8203 254.971 49.3333 254.856 48.875C254.749 48.4095 254.577 47.9977 254.341 47.6396C254.112 47.2816 253.818 47.0023 253.46 46.8018C253.109 46.5941 252.69 46.4902 252.203 46.4902C251.716 46.4902 251.294 46.5941 250.936 46.8018C250.585 47.0023 250.295 47.2816 250.065 47.6396C249.836 47.9977 249.668 48.4095 249.561 48.875C249.453 49.3333 249.399 49.8203 249.399 50.3359ZM262.387 46.8555V56.2656H259.798V44.6426H262.269L262.387 46.8555ZM265.942 44.5674L265.921 46.9736C265.763 46.945 265.591 46.9235 265.405 46.9092C265.226 46.8949 265.047 46.8877 264.868 46.8877C264.424 46.8877 264.034 46.9521 263.697 47.0811C263.361 47.2028 263.078 47.3818 262.849 47.6182C262.627 47.8473 262.455 48.1266 262.333 48.4561C262.211 48.7855 262.14 49.1543 262.118 49.5625L261.527 49.6055C261.527 48.875 261.599 48.1982 261.742 47.5752C261.885 46.9521 262.1 46.4043 262.387 45.9316C262.68 45.459 263.046 45.0902 263.482 44.8252C263.926 44.5602 264.438 44.4277 265.019 44.4277C265.176 44.4277 265.344 44.4421 265.523 44.4707C265.71 44.4993 265.849 44.5316 265.942 44.5674ZM276.824 54.2139L279.671 44.6426H282.356L278.317 56.2656H276.642L276.824 54.2139ZM274.644 44.6426L277.544 54.2568L277.684 56.2656H276.008L271.947 44.6426H274.644ZM288.931 56.4805C288.071 56.4805 287.294 56.3408 286.6 56.0615C285.912 55.7751 285.325 55.3776 284.838 54.8691C284.358 54.3607 283.989 53.7627 283.731 53.0752C283.474 52.3877 283.345 51.6465 283.345 50.8516V50.4219C283.345 49.5124 283.477 48.6888 283.742 47.9512C284.007 47.2135 284.376 46.5833 284.849 46.0605C285.321 45.5306 285.88 45.126 286.524 44.8467C287.169 44.5674 287.867 44.4277 288.619 44.4277C289.45 44.4277 290.177 44.5674 290.8 44.8467C291.423 45.126 291.938 45.5199 292.347 46.0283C292.762 46.5296 293.07 47.1276 293.271 47.8223C293.478 48.5169 293.582 49.2832 293.582 50.1211V51.2275H284.602V49.3691H291.025V49.165C291.011 48.6995 290.918 48.2627 290.746 47.8545C290.581 47.4463 290.327 47.1169 289.983 46.8662C289.64 46.6156 289.181 46.4902 288.608 46.4902C288.179 46.4902 287.796 46.5833 287.459 46.7695C287.13 46.9486 286.854 47.21 286.632 47.5537C286.41 47.8975 286.238 48.3128 286.116 48.7998C286.002 49.2796 285.944 49.8203 285.944 50.4219V50.8516C285.944 51.36 286.012 51.8327 286.148 52.2695C286.292 52.6992 286.499 53.0752 286.771 53.3975C287.044 53.7197 287.373 53.974 287.76 54.1602C288.146 54.3392 288.587 54.4287 289.081 54.4287C289.704 54.4287 290.259 54.3034 290.746 54.0527C291.233 53.8021 291.656 53.4476 292.014 52.9893L293.378 54.3105C293.127 54.6758 292.801 55.0267 292.4 55.3633C291.999 55.6927 291.509 55.9613 290.929 56.1689C290.356 56.3766 289.69 56.4805 288.931 56.4805ZM298.201 46.8555V56.2656H295.612V44.6426H298.083L298.201 46.8555ZM301.757 44.5674L301.735 46.9736C301.578 46.945 301.406 46.9235 301.22 46.9092C301.041 46.8949 300.862 46.8877 300.683 46.8877C300.239 46.8877 299.848 46.9521 299.512 47.0811C299.175 47.2028 298.892 47.3818 298.663 47.6182C298.441 47.8473 298.269 48.1266 298.147 48.4561C298.026 48.7855 297.954 49.1543 297.933 49.5625L297.342 49.6055C297.342 48.875 297.413 48.1982 297.557 47.5752C297.7 46.9521 297.915 46.4043 298.201 45.9316C298.495 45.459 298.86 45.0902 299.297 44.8252C299.741 44.5602 300.253 44.4277 300.833 44.4277C300.991 44.4277 301.159 44.4421 301.338 44.4707C301.524 44.4993 301.664 44.5316 301.757 44.5674ZM309.899 53.1182C309.899 52.8604 309.835 52.6276 309.706 52.4199C309.577 52.2051 309.33 52.0117 308.965 51.8398C308.607 51.668 308.077 51.5104 307.375 51.3672C306.759 51.2311 306.193 51.07 305.678 50.8838C305.169 50.6904 304.732 50.4577 304.367 50.1855C304.002 49.9134 303.719 49.5911 303.519 49.2188C303.318 48.8464 303.218 48.4167 303.218 47.9297C303.218 47.457 303.322 47.0094 303.529 46.5869C303.737 46.1644 304.034 45.792 304.421 45.4697C304.808 45.1475 305.277 44.8932 305.828 44.707C306.387 44.5208 307.01 44.4277 307.697 44.4277C308.671 44.4277 309.506 44.5924 310.2 44.9219C310.902 45.2441 311.439 45.6846 311.812 46.2432C312.184 46.7946 312.37 47.4176 312.37 48.1123H309.781C309.781 47.8044 309.702 47.5179 309.545 47.2529C309.395 46.9808 309.165 46.7624 308.857 46.5977C308.549 46.4258 308.163 46.3398 307.697 46.3398C307.253 46.3398 306.884 46.4115 306.591 46.5547C306.304 46.6908 306.09 46.8698 305.946 47.0918C305.81 47.3138 305.742 47.5573 305.742 47.8223C305.742 48.0156 305.778 48.1911 305.85 48.3486C305.928 48.499 306.057 48.6387 306.236 48.7676C306.415 48.8893 306.659 49.0039 306.967 49.1113C307.282 49.2188 307.676 49.3226 308.148 49.4229C309.036 49.609 309.799 49.849 310.437 50.1426C311.081 50.429 311.575 50.8014 311.919 51.2598C312.263 51.7109 312.435 52.2839 312.435 52.9785C312.435 53.4941 312.324 53.9668 312.102 54.3965C311.887 54.819 311.572 55.1878 311.156 55.5029C310.741 55.8109 310.243 56.0508 309.663 56.2227C309.09 56.3945 308.446 56.4805 307.729 56.4805C306.677 56.4805 305.785 56.2943 305.055 55.9219C304.324 55.5423 303.769 55.0589 303.39 54.4717C303.017 53.8773 302.831 53.2614 302.831 52.624H305.334C305.363 53.1038 305.495 53.487 305.731 53.7734C305.975 54.0527 306.276 54.2568 306.634 54.3857C306.999 54.5075 307.375 54.5684 307.762 54.5684C308.227 54.5684 308.618 54.5075 308.933 54.3857C309.248 54.2568 309.488 54.085 309.652 53.8701C309.817 53.6481 309.899 53.3975 309.899 53.1182ZM321.254 53.9346V48.3916C321.254 47.9762 321.179 47.6182 321.028 47.3174C320.878 47.0166 320.649 46.7839 320.341 46.6191C320.04 46.4544 319.66 46.3721 319.202 46.3721C318.78 46.3721 318.414 46.4437 318.106 46.5869C317.799 46.7301 317.559 46.9235 317.387 47.167C317.215 47.4105 317.129 47.6862 317.129 47.9941H314.551C314.551 47.5358 314.662 47.0918 314.884 46.6621C315.106 46.2324 315.428 45.8493 315.851 45.5127C316.273 45.1761 316.778 44.9111 317.365 44.7178C317.952 44.5244 318.611 44.4277 319.342 44.4277C320.215 44.4277 320.989 44.5745 321.662 44.8682C322.342 45.1618 322.876 45.6058 323.263 46.2002C323.657 46.7874 323.854 47.5251 323.854 48.4131V53.5801C323.854 54.11 323.889 54.5863 323.961 55.0088C324.04 55.4242 324.151 55.7858 324.294 56.0938V56.2656H321.641C321.519 55.9863 321.422 55.6318 321.351 55.2021C321.286 54.7653 321.254 54.3428 321.254 53.9346ZM321.63 49.1973L321.651 50.7979H319.793C319.313 50.7979 318.891 50.8444 318.525 50.9375C318.16 51.0234 317.856 51.1523 317.612 51.3242C317.369 51.4961 317.186 51.7038 317.064 51.9473C316.943 52.1908 316.882 52.4665 316.882 52.7744C316.882 53.0824 316.953 53.3652 317.097 53.623C317.24 53.8737 317.448 54.0706 317.72 54.2139C317.999 54.3571 318.336 54.4287 318.729 54.4287C319.259 54.4287 319.721 54.3213 320.115 54.1064C320.516 53.8844 320.831 53.6159 321.061 53.3008C321.29 52.9785 321.411 52.6742 321.426 52.3877L322.264 53.5371C322.178 53.8307 322.031 54.1458 321.823 54.4824C321.616 54.819 321.343 55.1413 321.007 55.4492C320.677 55.75 320.28 55.9971 319.814 56.1904C319.356 56.3838 318.826 56.4805 318.225 56.4805C317.465 56.4805 316.789 56.3301 316.194 56.0293C315.6 55.7214 315.134 55.3096 314.798 54.7939C314.461 54.2712 314.293 53.6803 314.293 53.0215C314.293 52.4056 314.408 51.8613 314.637 51.3887C314.873 50.9089 315.217 50.5078 315.668 50.1855C316.126 49.8633 316.685 49.6198 317.344 49.4551C318.003 49.2832 318.755 49.1973 319.6 49.1973H321.63ZM321.791 39.8945L323.37 40.0127C323.37 40.5355 323.266 41.0046 323.059 41.4199C322.851 41.8281 322.568 42.1504 322.21 42.3867C321.852 42.623 321.447 42.7412 320.996 42.7412C320.645 42.7412 320.348 42.6911 320.104 42.5908C319.861 42.4906 319.639 42.376 319.438 42.2471C319.238 42.1182 319.03 42.0072 318.815 41.9141C318.608 41.8138 318.361 41.7637 318.074 41.7637C317.802 41.7637 317.569 41.8639 317.376 42.0645C317.19 42.265 317.097 42.5335 317.097 42.8701L315.507 42.7842C315.507 42.2686 315.611 41.8031 315.818 41.3877C316.026 40.9723 316.309 40.6429 316.667 40.3994C317.025 40.1559 317.43 40.0342 317.881 40.0342C318.174 40.0342 318.439 40.0843 318.676 40.1846C318.919 40.2777 319.148 40.3887 319.363 40.5176C319.585 40.6465 319.811 40.7611 320.04 40.8613C320.269 40.9616 320.523 41.0117 320.803 41.0117C321.075 41.0117 321.308 40.9079 321.501 40.7002C321.694 40.4925 321.791 40.224 321.791 39.8945ZM326.066 50.583V50.3359C326.066 49.498 326.188 48.721 326.432 48.0049C326.675 47.2816 327.026 46.6549 327.484 46.125C327.95 45.5879 328.516 45.1725 329.182 44.8789C329.855 44.5781 330.614 44.4277 331.459 44.4277C332.311 44.4277 333.07 44.5781 333.736 44.8789C334.41 45.1725 334.979 45.5879 335.444 46.125C335.91 46.6549 336.264 47.2816 336.508 48.0049C336.751 48.721 336.873 49.498 336.873 50.3359V50.583C336.873 51.4209 336.751 52.1979 336.508 52.9141C336.264 53.6302 335.91 54.2568 335.444 54.7939C334.979 55.3239 334.413 55.7393 333.747 56.04C333.081 56.3337 332.326 56.4805 331.48 56.4805C330.628 56.4805 329.866 56.3337 329.192 56.04C328.526 55.7393 327.961 55.3239 327.495 54.7939C327.03 54.2568 326.675 53.6302 326.432 52.9141C326.188 52.1979 326.066 51.4209 326.066 50.583ZM328.655 50.3359V50.583C328.655 51.1058 328.709 51.5999 328.816 52.0654C328.924 52.5309 329.092 52.9391 329.321 53.29C329.55 53.641 329.844 53.9167 330.202 54.1172C330.56 54.3177 330.986 54.418 331.48 54.418C331.96 54.418 332.376 54.3177 332.727 54.1172C333.085 53.9167 333.378 53.641 333.607 53.29C333.837 52.9391 334.005 52.5309 334.112 52.0654C334.227 51.5999 334.284 51.1058 334.284 50.583V50.3359C334.284 49.8203 334.227 49.3333 334.112 48.875C334.005 48.4095 333.833 47.9977 333.597 47.6396C333.368 47.2816 333.074 47.0023 332.716 46.8018C332.365 46.5941 331.946 46.4902 331.459 46.4902C330.972 46.4902 330.549 46.5941 330.191 46.8018C329.84 47.0023 329.55 47.2816 329.321 47.6396C329.092 47.9977 328.924 48.4095 328.816 48.875C328.709 49.3333 328.655 49.8203 328.655 50.3359Z" fill="#C4C4CC"/>
<path d="M74.1182 16.2637H77.4316V29.543C77.4316 30.7956 77.1523 31.8577 76.5938 32.7295C76.0436 33.6097 75.2734 34.2741 74.2832 34.7227C73.293 35.1797 72.1419 35.4082 70.8301 35.4082C70.2546 35.4082 69.6452 35.332 69.002 35.1797C68.3672 35.0273 67.7578 34.7904 67.1738 34.4688C66.5983 34.1471 66.1159 33.7409 65.7266 33.25L67.3389 31.0918C67.762 31.5827 68.2529 31.9635 68.8115 32.2344C69.3701 32.5137 69.988 32.6533 70.665 32.6533C71.3252 32.6533 71.8838 32.5306 72.3408 32.2852C72.7979 32.0482 73.1491 31.6969 73.3945 31.2314C73.64 30.7744 73.7627 30.2201 73.7627 29.5684V19.4375L74.1182 16.2637ZM64.876 23.2969V23.0303C64.876 21.9808 65.0029 21.0286 65.2568 20.1738C65.5192 19.3105 65.8874 18.57 66.3613 17.9521C66.8438 17.3343 67.4277 16.8561 68.1133 16.5176C68.7988 16.179 69.5732 16.0098 70.4365 16.0098C71.3506 16.0098 72.1165 16.179 72.7344 16.5176C73.3522 16.8561 73.86 17.3385 74.2578 17.9648C74.6556 18.5827 74.9645 19.3148 75.1846 20.1611C75.4131 20.999 75.5908 21.9173 75.7178 22.916V23.5C75.5908 24.4564 75.4004 25.3451 75.1465 26.166C74.8926 26.987 74.5583 27.7064 74.1436 28.3242C73.7288 28.9336 73.2126 29.4076 72.5947 29.7461C71.9854 30.0846 71.2575 30.2539 70.4111 30.2539C69.5648 30.2539 68.7988 30.0804 68.1133 29.7334C67.4362 29.3864 66.8564 28.8997 66.374 28.2734C65.8916 27.6471 65.5192 26.9108 65.2568 26.0645C65.0029 25.2181 64.876 24.2956 64.876 23.2969ZM68.5322 23.0303V23.2969C68.5322 23.8639 68.5872 24.3929 68.6973 24.8838C68.8073 25.3747 68.9766 25.8105 69.2051 26.1914C69.4421 26.5638 69.734 26.8558 70.0811 27.0674C70.4365 27.2705 70.8555 27.3721 71.3379 27.3721C72.0065 27.3721 72.5524 27.2324 72.9756 26.9531C73.3988 26.6654 73.7161 26.2718 73.9277 25.7725C74.1393 25.2731 74.262 24.6976 74.2959 24.0459V22.3828C74.279 21.8496 74.207 21.3714 74.0801 20.9482C73.9531 20.5166 73.7754 20.1484 73.5469 19.8438C73.3184 19.5391 73.0221 19.3021 72.6582 19.1328C72.2943 18.9635 71.8626 18.8789 71.3633 18.8789C70.8809 18.8789 70.4619 18.9889 70.1064 19.209C69.7594 19.4206 69.4674 19.7126 69.2305 20.085C69.002 20.4574 68.8285 20.8975 68.71 21.4053C68.5915 21.9046 68.5322 22.4463 68.5322 23.0303ZM83.9316 19.2598V30H80.2754V16.2637H83.7158L83.9316 19.2598ZM88.0703 16.1748L88.0068 19.5645C87.8291 19.5391 87.6133 19.5179 87.3594 19.501C87.1139 19.4756 86.8896 19.4629 86.6865 19.4629C86.1702 19.4629 85.7217 19.5306 85.3408 19.666C84.9684 19.793 84.6553 19.9834 84.4014 20.2373C84.1559 20.4912 83.9697 20.8001 83.8428 21.1641C83.7243 21.528 83.6566 21.9427 83.6396 22.4082L82.9033 22.1797C82.9033 21.291 82.9922 20.4743 83.1699 19.7295C83.3477 18.9762 83.6058 18.3203 83.9443 17.7617C84.2913 17.2031 84.7145 16.7715 85.2139 16.4668C85.7132 16.1621 86.2845 16.0098 86.9277 16.0098C87.1309 16.0098 87.3382 16.0267 87.5498 16.0605C87.7614 16.0859 87.9349 16.124 88.0703 16.1748ZM95.8652 30.2539C94.7988 30.2539 93.8424 30.0846 92.9961 29.7461C92.1497 29.3991 91.4303 28.9209 90.8379 28.3115C90.2539 27.7021 89.8053 26.9954 89.4922 26.1914C89.179 25.3789 89.0225 24.5156 89.0225 23.6016V23.0938C89.0225 22.0527 89.1706 21.1006 89.4668 20.2373C89.763 19.374 90.1862 18.625 90.7363 17.9902C91.2949 17.3555 91.972 16.8688 92.7676 16.5303C93.5632 16.1833 94.4603 16.0098 95.459 16.0098C96.4323 16.0098 97.2956 16.1706 98.0488 16.4922C98.8021 16.8138 99.4326 17.2708 99.9404 17.8633C100.457 18.4557 100.846 19.1667 101.108 19.9961C101.371 20.8171 101.502 21.7311 101.502 22.7383V24.2617H90.584V21.8242H97.9092V21.5449C97.9092 21.0371 97.8161 20.5843 97.6299 20.1865C97.4521 19.7803 97.1813 19.4587 96.8174 19.2217C96.4535 18.9847 95.988 18.8662 95.4209 18.8662C94.9385 18.8662 94.5238 18.972 94.1768 19.1836C93.8298 19.3952 93.5462 19.6914 93.3262 20.0723C93.1146 20.4531 92.9538 20.9017 92.8438 21.418C92.7422 21.9258 92.6914 22.4844 92.6914 23.0938V23.6016C92.6914 24.1517 92.7676 24.6595 92.9199 25.125C93.0807 25.5905 93.305 25.9925 93.5928 26.3311C93.889 26.6696 94.2445 26.932 94.6592 27.1182C95.0824 27.3044 95.5605 27.3975 96.0938 27.3975C96.7539 27.3975 97.3675 27.2705 97.9346 27.0166C98.5101 26.7542 99.0052 26.3607 99.4199 25.8359L101.197 27.7656C100.91 28.1803 100.516 28.5781 100.017 28.959C99.5257 29.3398 98.9333 29.653 98.2393 29.8984C97.5452 30.1354 96.7539 30.2539 95.8652 30.2539ZM107.481 28.4512L111.125 16.2637H115.048L109.525 32.0693C109.407 32.4163 109.246 32.7887 109.043 33.1865C108.848 33.5843 108.582 33.9609 108.243 34.3164C107.913 34.6803 107.494 34.9766 106.986 35.2051C106.487 35.4336 105.873 35.5479 105.146 35.5479C104.799 35.5479 104.515 35.5267 104.295 35.4844C104.075 35.4421 103.812 35.3828 103.508 35.3066V32.6279C103.601 32.6279 103.698 32.6279 103.8 32.6279C103.901 32.6364 103.999 32.6406 104.092 32.6406C104.574 32.6406 104.968 32.5856 105.272 32.4756C105.577 32.3656 105.823 32.1963 106.009 31.9678C106.195 31.7477 106.343 31.46 106.453 31.1045L107.481 28.4512ZM105.958 16.2637L108.941 26.2168L109.462 30.0889L106.974 30.3555L102.035 16.2637H105.958ZM120.164 19.2598V30H116.508V16.2637H119.948L120.164 19.2598ZM124.303 16.1748L124.239 19.5645C124.062 19.5391 123.846 19.5179 123.592 19.501C123.346 19.4756 123.122 19.4629 122.919 19.4629C122.403 19.4629 121.954 19.5306 121.573 19.666C121.201 19.793 120.888 19.9834 120.634 20.2373C120.388 20.4912 120.202 20.8001 120.075 21.1641C119.957 21.528 119.889 21.9427 119.872 22.4082L119.136 22.1797C119.136 21.291 119.225 20.4743 119.402 19.7295C119.58 18.9762 119.838 18.3203 120.177 17.7617C120.524 17.2031 120.947 16.7715 121.446 16.4668C121.946 16.1621 122.517 16.0098 123.16 16.0098C123.363 16.0098 123.571 16.0267 123.782 16.0605C123.994 16.0859 124.167 16.124 124.303 16.1748ZM133.012 26.9023V20.7832C133.012 20.3431 132.94 19.9665 132.796 19.6533C132.652 19.3317 132.428 19.082 132.123 18.9043C131.827 18.7266 131.442 18.6377 130.968 18.6377C130.562 18.6377 130.21 18.7096 129.914 18.8535C129.618 18.9889 129.389 19.1878 129.229 19.4502C129.068 19.7041 128.987 20.0046 128.987 20.3516H125.331C125.331 19.7676 125.466 19.2132 125.737 18.6885C126.008 18.1637 126.402 17.7025 126.918 17.3047C127.434 16.8984 128.048 16.5811 128.759 16.3525C129.478 16.124 130.282 16.0098 131.171 16.0098C132.237 16.0098 133.185 16.1875 134.015 16.543C134.844 16.8984 135.496 17.4316 135.97 18.1426C136.452 18.8535 136.693 19.7422 136.693 20.8086V26.6865C136.693 27.4398 136.74 28.0576 136.833 28.54C136.926 29.014 137.062 29.4287 137.239 29.7842V30H133.545C133.367 29.6276 133.232 29.1621 133.139 28.6035C133.054 28.0365 133.012 27.4694 133.012 26.9023ZM133.494 21.6338L133.52 23.7031H131.476C130.993 23.7031 130.574 23.7581 130.219 23.8682C129.863 23.9782 129.571 24.1348 129.343 24.3379C129.114 24.5326 128.945 24.7611 128.835 25.0234C128.733 25.2858 128.683 25.5736 128.683 25.8867C128.683 26.1999 128.755 26.4834 128.898 26.7373C129.042 26.9827 129.25 27.1774 129.521 27.3213C129.791 27.4567 130.109 27.5244 130.473 27.5244C131.023 27.5244 131.501 27.4144 131.907 27.1943C132.313 26.9743 132.627 26.7035 132.847 26.3818C133.075 26.0602 133.194 25.7555 133.202 25.4678L134.167 27.0166C134.032 27.3636 133.845 27.7233 133.608 28.0957C133.38 28.4681 133.088 28.8193 132.732 29.1494C132.377 29.471 131.95 29.7376 131.45 29.9492C130.951 30.1523 130.358 30.2539 129.673 30.2539C128.801 30.2539 128.01 30.0804 127.299 29.7334C126.596 29.3779 126.038 28.8913 125.623 28.2734C125.217 27.6471 125.014 26.9362 125.014 26.1406C125.014 25.4212 125.149 24.7822 125.42 24.2236C125.691 23.665 126.089 23.1953 126.613 22.8145C127.146 22.4251 127.811 22.1331 128.606 21.9385C129.402 21.7354 130.325 21.6338 131.374 21.6338H133.494ZM146.24 16.2637V18.8535H138.242V16.2637H146.24ZM140.223 12.874H143.879V25.8613C143.879 26.2591 143.93 26.5638 144.031 26.7754C144.141 26.987 144.302 27.1351 144.514 27.2197C144.725 27.2959 144.992 27.334 145.313 27.334C145.542 27.334 145.745 27.3255 145.923 27.3086C146.109 27.2832 146.266 27.2578 146.393 27.2324L146.405 29.9238C146.092 30.0254 145.754 30.1058 145.39 30.165C145.026 30.2243 144.624 30.2539 144.184 30.2539C143.38 30.2539 142.677 30.1227 142.076 29.8604C141.484 29.5895 141.027 29.1579 140.705 28.5654C140.383 27.973 140.223 27.1943 140.223 26.2295V12.874Z" fill="#E1E1E6"/>
</svg>
